<mxfile host="65bd71144e">
    <diagram id="HUjrorhrIWyASjxgm3WW" name="Page-1">
        <mxGraphModel dx="1808" dy="1248" grid="1" gridSize="10" guides="1" tooltips="1" connect="1" arrows="1" fold="1" page="1" pageScale="1" pageWidth="850" pageHeight="1100" background="none" math="0" shadow="0">
            <root>
                <mxCell id="0"/>
                <mxCell id="1" parent="0"/>
                <mxCell id="2" value="Character" style="shape=table;startSize=30;container=1;collapsible=1;childLayout=tableLayout;fixedRows=1;rowLines=1;fontStyle=1;align=center;resizeLast=1;hachureGap=4;fontFamily=Helvetica;fontSize=20;rounded=1;swimlaneLine=1;shadow=0;labelBackgroundColor=#FFFFFF;swimlaneFillColor=#FFFFFF;" parent="1" vertex="1">
                    <mxGeometry width="250" height="540.0000000000002" as="geometry">
                        <mxRectangle x="20" y="50" width="90" height="40" as="alternateBounds"/>
                    </mxGeometry>
                </mxCell>
                <mxCell id="3" value="" style="shape=tableRow;horizontal=0;startSize=0;swimlaneHead=0;swimlaneBody=0;fillColor=none;collapsible=0;dropTarget=0;points=[[0,0.5],[1,0.5]];portConstraint=eastwest;top=0;left=0;right=0;bottom=1;hachureGap=4;fontFamily=Helvetica;fontSize=20;labelBackgroundColor=#FFFFFF;" parent="2" vertex="1">
                    <mxGeometry y="30" width="250" height="30" as="geometry"/>
                </mxCell>
                <mxCell id="4" value="PK" style="shape=partialRectangle;connectable=0;fillColor=none;top=0;left=0;bottom=0;right=0;fontStyle=1;overflow=hidden;hachureGap=4;fontFamily=Helvetica;fontSize=20;labelBackgroundColor=#FFFFFF;" parent="3" vertex="1">
                    <mxGeometry width="30" height="30" as="geometry">
                        <mxRectangle width="30" height="30" as="alternateBounds"/>
                    </mxGeometry>
                </mxCell>
                <mxCell id="5" value="UniqueID" style="shape=partialRectangle;connectable=0;fillColor=none;top=0;left=0;bottom=0;right=0;align=left;spacingLeft=6;fontStyle=5;overflow=hidden;hachureGap=4;fontFamily=Helvetica;fontSize=20;labelBackgroundColor=#FFFFFF;" parent="3" vertex="1">
                    <mxGeometry x="30" width="220" height="30" as="geometry">
                        <mxRectangle width="220" height="30" as="alternateBounds"/>
                    </mxGeometry>
                </mxCell>
                <mxCell id="6" value="" style="shape=tableRow;horizontal=0;startSize=0;swimlaneHead=0;swimlaneBody=0;fillColor=none;collapsible=0;dropTarget=0;points=[[0,0.5],[1,0.5]];portConstraint=eastwest;top=0;left=0;right=0;bottom=0;hachureGap=4;fontFamily=Helvetica;fontSize=20;labelBackgroundColor=#FFFFFF;" parent="2" vertex="1">
                    <mxGeometry y="60" width="250" height="30" as="geometry"/>
                </mxCell>
                <mxCell id="7" value="" style="shape=partialRectangle;connectable=0;fillColor=none;top=0;left=0;bottom=0;right=0;editable=1;overflow=hidden;hachureGap=4;fontFamily=Helvetica;fontSize=20;labelBackgroundColor=#FFFFFF;" parent="6" vertex="1">
                    <mxGeometry width="30" height="30" as="geometry">
                        <mxRectangle width="30" height="30" as="alternateBounds"/>
                    </mxGeometry>
                </mxCell>
                <mxCell id="8" value="player_name: str NN UQ" style="shape=partialRectangle;connectable=0;fillColor=none;top=0;left=0;bottom=0;right=0;align=left;spacingLeft=6;overflow=hidden;hachureGap=4;fontFamily=Helvetica;fontSize=18;labelBackgroundColor=#FFFFFF;" parent="6" vertex="1">
                    <mxGeometry x="30" width="220" height="30" as="geometry">
                        <mxRectangle width="220" height="30" as="alternateBounds"/>
                    </mxGeometry>
                </mxCell>
                <mxCell id="9" value="" style="shape=tableRow;horizontal=0;startSize=0;swimlaneHead=0;swimlaneBody=0;fillColor=none;collapsible=0;dropTarget=0;points=[[0,0.5],[1,0.5]];portConstraint=eastwest;top=0;left=0;right=0;bottom=0;hachureGap=4;fontFamily=Helvetica;fontSize=20;labelBackgroundColor=#FFFFFF;" parent="2" vertex="1">
                    <mxGeometry y="90" width="250" height="30" as="geometry"/>
                </mxCell>
                <mxCell id="10" value="" style="shape=partialRectangle;connectable=0;fillColor=none;top=0;left=0;bottom=0;right=0;editable=1;overflow=hidden;hachureGap=4;fontFamily=Helvetica;fontSize=20;labelBackgroundColor=#FFFFFF;" parent="9" vertex="1">
                    <mxGeometry width="30" height="30" as="geometry">
                        <mxRectangle width="30" height="30" as="alternateBounds"/>
                    </mxGeometry>
                </mxCell>
                <mxCell id="11" value="race: str NN" style="shape=partialRectangle;connectable=0;fillColor=none;top=0;left=0;bottom=0;right=0;align=left;spacingLeft=6;overflow=hidden;hachureGap=4;fontFamily=Helvetica;fontSize=20;labelBackgroundColor=#FFFFFF;" parent="9" vertex="1">
                    <mxGeometry x="30" width="220" height="30" as="geometry">
                        <mxRectangle width="220" height="30" as="alternateBounds"/>
                    </mxGeometry>
                </mxCell>
                <mxCell id="45" style="shape=tableRow;horizontal=0;startSize=0;swimlaneHead=0;swimlaneBody=0;fillColor=none;collapsible=0;dropTarget=0;points=[[0,0.5],[1,0.5]];portConstraint=eastwest;top=0;left=0;right=0;bottom=0;hachureGap=4;fontFamily=Helvetica;fontSize=20;labelBackgroundColor=#FFFFFF;" parent="2" vertex="1">
                    <mxGeometry y="120" width="250" height="30" as="geometry"/>
                </mxCell>
                <mxCell id="46" style="shape=partialRectangle;connectable=0;fillColor=none;top=0;left=0;bottom=0;right=0;editable=1;overflow=hidden;hachureGap=4;fontFamily=Helvetica;fontSize=20;labelBackgroundColor=#FFFFFF;" parent="45" vertex="1">
                    <mxGeometry width="30" height="30" as="geometry">
                        <mxRectangle width="30" height="30" as="alternateBounds"/>
                    </mxGeometry>
                </mxCell>
                <mxCell id="47" value="alignment: str NN" style="shape=partialRectangle;connectable=0;fillColor=none;top=0;left=0;bottom=0;right=0;align=left;spacingLeft=6;overflow=hidden;hachureGap=4;fontFamily=Helvetica;fontSize=20;labelBackgroundColor=#FFFFFF;" parent="45" vertex="1">
                    <mxGeometry x="30" width="220" height="30" as="geometry">
                        <mxRectangle width="220" height="30" as="alternateBounds"/>
                    </mxGeometry>
                </mxCell>
                <mxCell id="12" value="" style="shape=tableRow;horizontal=0;startSize=0;swimlaneHead=0;swimlaneBody=0;fillColor=none;collapsible=0;dropTarget=0;points=[[0,0.5],[1,0.5]];portConstraint=eastwest;top=0;left=0;right=0;bottom=0;hachureGap=4;fontFamily=Helvetica;fontSize=20;labelBackgroundColor=#FFFFFF;" parent="2" vertex="1">
                    <mxGeometry y="150" width="250" height="30" as="geometry"/>
                </mxCell>
                <mxCell id="13" value="" style="shape=partialRectangle;connectable=0;fillColor=none;top=0;left=0;bottom=0;right=0;editable=1;overflow=hidden;hachureGap=4;fontFamily=Helvetica;fontSize=20;labelBackgroundColor=#FFFFFF;" parent="12" vertex="1">
                    <mxGeometry width="30" height="30" as="geometry">
                        <mxRectangle width="30" height="30" as="alternateBounds"/>
                    </mxGeometry>
                </mxCell>
                <mxCell id="14" value="health: int NN" style="shape=partialRectangle;connectable=0;fillColor=none;top=0;left=0;bottom=0;right=0;align=left;spacingLeft=6;overflow=hidden;hachureGap=4;fontFamily=Helvetica;fontSize=20;fontStyle=0;labelBackgroundColor=#FFFFFF;" parent="12" vertex="1">
                    <mxGeometry x="30" width="220" height="30" as="geometry">
                        <mxRectangle width="220" height="30" as="alternateBounds"/>
                    </mxGeometry>
                </mxCell>
                <mxCell id="30" style="shape=tableRow;horizontal=0;startSize=0;swimlaneHead=0;swimlaneBody=0;fillColor=none;collapsible=0;dropTarget=0;points=[[0,0.5],[1,0.5]];portConstraint=eastwest;top=0;left=0;right=0;bottom=0;hachureGap=4;fontFamily=Helvetica;fontSize=20;labelBackgroundColor=#FFFFFF;" parent="2" vertex="1">
                    <mxGeometry y="180" width="250" height="30" as="geometry"/>
                </mxCell>
                <mxCell id="31" style="shape=partialRectangle;connectable=0;fillColor=none;top=0;left=0;bottom=0;right=0;editable=1;overflow=hidden;hachureGap=4;fontFamily=Helvetica;fontSize=20;labelBackgroundColor=#FFFFFF;" parent="30" vertex="1">
                    <mxGeometry width="30" height="30" as="geometry">
                        <mxRectangle width="30" height="30" as="alternateBounds"/>
                    </mxGeometry>
                </mxCell>
                <mxCell id="32" value="magic: int  NN" style="shape=partialRectangle;connectable=0;fillColor=none;top=0;left=0;bottom=0;right=0;align=left;spacingLeft=6;overflow=hidden;hachureGap=4;fontFamily=Helvetica;fontSize=20;labelBackgroundColor=#FFFFFF;" parent="30" vertex="1">
                    <mxGeometry x="30" width="220" height="30" as="geometry">
                        <mxRectangle width="220" height="30" as="alternateBounds"/>
                    </mxGeometry>
                </mxCell>
                <mxCell id="63" style="shape=tableRow;horizontal=0;startSize=0;swimlaneHead=0;swimlaneBody=0;fillColor=none;collapsible=0;dropTarget=0;points=[[0,0.5],[1,0.5]];portConstraint=eastwest;top=0;left=0;right=0;bottom=0;hachureGap=4;fontFamily=Helvetica;fontSize=20;labelBackgroundColor=#FFFFFF;" parent="2" vertex="1">
                    <mxGeometry y="210" width="250" height="30" as="geometry"/>
                </mxCell>
                <mxCell id="64" style="shape=partialRectangle;connectable=0;fillColor=none;top=0;left=0;bottom=0;right=0;editable=1;overflow=hidden;hachureGap=4;fontFamily=Helvetica;fontSize=20;labelBackgroundColor=#FFFFFF;" parent="63" vertex="1">
                    <mxGeometry width="30" height="30" as="geometry">
                        <mxRectangle width="30" height="30" as="alternateBounds"/>
                    </mxGeometry>
                </mxCell>
                <mxCell id="65" value="resistance: int  NN" style="shape=partialRectangle;connectable=0;fillColor=none;top=0;left=0;bottom=0;right=0;align=left;spacingLeft=6;overflow=hidden;hachureGap=4;fontFamily=Helvetica;fontSize=20;labelBackgroundColor=#FFFFFF;" parent="63" vertex="1">
                    <mxGeometry x="30" width="220" height="30" as="geometry">
                        <mxRectangle width="220" height="30" as="alternateBounds"/>
                    </mxGeometry>
                </mxCell>
                <mxCell id="60" style="shape=tableRow;horizontal=0;startSize=0;swimlaneHead=0;swimlaneBody=0;fillColor=none;collapsible=0;dropTarget=0;points=[[0,0.5],[1,0.5]];portConstraint=eastwest;top=0;left=0;right=0;bottom=0;hachureGap=4;fontFamily=Helvetica;fontSize=20;labelBackgroundColor=#FFFFFF;" parent="2" vertex="1">
                    <mxGeometry y="240" width="250" height="30" as="geometry"/>
                </mxCell>
                <mxCell id="61" style="shape=partialRectangle;connectable=0;fillColor=none;top=0;left=0;bottom=0;right=0;editable=1;overflow=hidden;hachureGap=4;fontFamily=Helvetica;fontSize=20;labelBackgroundColor=#FFFFFF;" parent="60" vertex="1">
                    <mxGeometry width="30" height="30" as="geometry">
                        <mxRectangle width="30" height="30" as="alternateBounds"/>
                    </mxGeometry>
                </mxCell>
                <mxCell id="62" value="defense: int NN" style="shape=partialRectangle;connectable=0;fillColor=none;top=0;left=0;bottom=0;right=0;align=left;spacingLeft=6;overflow=hidden;hachureGap=4;fontFamily=Helvetica;fontSize=20;labelBackgroundColor=#FFFFFF;" parent="60" vertex="1">
                    <mxGeometry x="30" width="220" height="30" as="geometry">
                        <mxRectangle width="220" height="30" as="alternateBounds"/>
                    </mxGeometry>
                </mxCell>
                <mxCell id="57" style="shape=tableRow;horizontal=0;startSize=0;swimlaneHead=0;swimlaneBody=0;fillColor=none;collapsible=0;dropTarget=0;points=[[0,0.5],[1,0.5]];portConstraint=eastwest;top=0;left=0;right=0;bottom=0;hachureGap=4;fontFamily=Helvetica;fontSize=20;labelBackgroundColor=#FFFFFF;" parent="2" vertex="1">
                    <mxGeometry y="270" width="250" height="30" as="geometry"/>
                </mxCell>
                <mxCell id="58" style="shape=partialRectangle;connectable=0;fillColor=none;top=0;left=0;bottom=0;right=0;editable=1;overflow=hidden;hachureGap=4;fontFamily=Helvetica;fontSize=20;labelBackgroundColor=#FFFFFF;" parent="57" vertex="1">
                    <mxGeometry width="30" height="30" as="geometry">
                        <mxRectangle width="30" height="30" as="alternateBounds"/>
                    </mxGeometry>
                </mxCell>
                <mxCell id="59" value="accuracy: int NN" style="shape=partialRectangle;connectable=0;fillColor=none;top=0;left=0;bottom=0;right=0;align=left;spacingLeft=6;overflow=hidden;hachureGap=4;fontFamily=Helvetica;fontSize=20;labelBackgroundColor=#FFFFFF;" parent="57" vertex="1">
                    <mxGeometry x="30" width="220" height="30" as="geometry">
                        <mxRectangle width="220" height="30" as="alternateBounds"/>
                    </mxGeometry>
                </mxCell>
                <mxCell id="54" style="shape=tableRow;horizontal=0;startSize=0;swimlaneHead=0;swimlaneBody=0;fillColor=none;collapsible=0;dropTarget=0;points=[[0,0.5],[1,0.5]];portConstraint=eastwest;top=0;left=0;right=0;bottom=0;hachureGap=4;fontFamily=Helvetica;fontSize=20;labelBackgroundColor=#FFFFFF;" parent="2" vertex="1">
                    <mxGeometry y="300" width="250" height="30" as="geometry"/>
                </mxCell>
                <mxCell id="55" style="shape=partialRectangle;connectable=0;fillColor=none;top=0;left=0;bottom=0;right=0;editable=1;overflow=hidden;hachureGap=4;fontFamily=Helvetica;fontSize=20;labelBackgroundColor=#FFFFFF;" parent="54" vertex="1">
                    <mxGeometry width="30" height="30" as="geometry">
                        <mxRectangle width="30" height="30" as="alternateBounds"/>
                    </mxGeometry>
                </mxCell>
                <mxCell id="56" value="luck: int  NN" style="shape=partialRectangle;connectable=0;fillColor=none;top=0;left=0;bottom=0;right=0;align=left;spacingLeft=6;overflow=hidden;hachureGap=4;fontFamily=Helvetica;fontSize=20;labelBackgroundColor=#FFFFFF;" parent="54" vertex="1">
                    <mxGeometry x="30" width="220" height="30" as="geometry">
                        <mxRectangle width="220" height="30" as="alternateBounds"/>
                    </mxGeometry>
                </mxCell>
                <mxCell id="234" style="shape=tableRow;horizontal=0;startSize=0;swimlaneHead=0;swimlaneBody=0;fillColor=none;collapsible=0;dropTarget=0;points=[[0,0.5],[1,0.5]];portConstraint=eastwest;top=0;left=0;right=0;bottom=0;hachureGap=4;fontFamily=Helvetica;fontSize=20;labelBackgroundColor=#FFFFFF;" parent="2" vertex="1">
                    <mxGeometry y="330" width="250" height="30" as="geometry"/>
                </mxCell>
                <mxCell id="235" style="shape=partialRectangle;connectable=0;fillColor=none;top=0;left=0;bottom=0;right=0;editable=1;overflow=hidden;hachureGap=4;fontFamily=Helvetica;fontSize=20;labelBackgroundColor=#FFFFFF;" parent="234" vertex="1">
                    <mxGeometry width="30" height="30" as="geometry">
                        <mxRectangle width="30" height="30" as="alternateBounds"/>
                    </mxGeometry>
                </mxCell>
                <mxCell id="236" value="constitution: int NN" style="shape=partialRectangle;connectable=0;fillColor=none;top=0;left=0;bottom=0;right=0;align=left;spacingLeft=6;overflow=hidden;hachureGap=4;fontFamily=Helvetica;fontSize=20;labelBackgroundColor=#FFFFFF;" parent="234" vertex="1">
                    <mxGeometry x="30" width="220" height="30" as="geometry">
                        <mxRectangle width="220" height="30" as="alternateBounds"/>
                    </mxGeometry>
                </mxCell>
                <mxCell id="51" style="shape=tableRow;horizontal=0;startSize=0;swimlaneHead=0;swimlaneBody=0;fillColor=none;collapsible=0;dropTarget=0;points=[[0,0.5],[1,0.5]];portConstraint=eastwest;top=0;left=0;right=0;bottom=0;hachureGap=4;fontFamily=Helvetica;fontSize=20;labelBackgroundColor=#FFFFFF;" parent="2" vertex="1">
                    <mxGeometry y="360" width="250" height="30" as="geometry"/>
                </mxCell>
                <mxCell id="52" style="shape=partialRectangle;connectable=0;fillColor=none;top=0;left=0;bottom=0;right=0;editable=1;overflow=hidden;hachureGap=4;fontFamily=Helvetica;fontSize=20;labelBackgroundColor=#FFFFFF;" parent="51" vertex="1">
                    <mxGeometry width="30" height="30" as="geometry">
                        <mxRectangle width="30" height="30" as="alternateBounds"/>
                    </mxGeometry>
                </mxCell>
                <mxCell id="53" value="exp: int  NN" style="shape=partialRectangle;connectable=0;fillColor=none;top=0;left=0;bottom=0;right=0;align=left;spacingLeft=6;overflow=hidden;hachureGap=4;fontFamily=Helvetica;fontSize=20;labelBackgroundColor=#FFFFFF;" parent="51" vertex="1">
                    <mxGeometry x="30" width="220" height="30" as="geometry">
                        <mxRectangle width="220" height="30" as="alternateBounds"/>
                    </mxGeometry>
                </mxCell>
                <mxCell id="48" style="shape=tableRow;horizontal=0;startSize=0;swimlaneHead=0;swimlaneBody=0;fillColor=none;collapsible=0;dropTarget=0;points=[[0,0.5],[1,0.5]];portConstraint=eastwest;top=0;left=0;right=0;bottom=0;hachureGap=4;fontFamily=Helvetica;fontSize=20;labelBackgroundColor=#FFFFFF;" parent="2" vertex="1">
                    <mxGeometry y="390" width="250" height="30" as="geometry"/>
                </mxCell>
                <mxCell id="49" style="shape=partialRectangle;connectable=0;fillColor=none;top=0;left=0;bottom=0;right=0;editable=1;overflow=hidden;hachureGap=4;fontFamily=Helvetica;fontSize=20;labelBackgroundColor=#FFFFFF;" parent="48" vertex="1">
                    <mxGeometry width="30" height="30" as="geometry">
                        <mxRectangle width="30" height="30" as="alternateBounds"/>
                    </mxGeometry>
                </mxCell>
                <mxCell id="50" value="level: int  NN" style="shape=partialRectangle;connectable=0;fillColor=none;top=0;left=0;bottom=0;right=0;align=left;spacingLeft=6;overflow=hidden;hachureGap=4;fontFamily=Helvetica;fontSize=20;labelBackgroundColor=#FFFFFF;" parent="48" vertex="1">
                    <mxGeometry x="30" width="220" height="30" as="geometry">
                        <mxRectangle width="220" height="30" as="alternateBounds"/>
                    </mxGeometry>
                </mxCell>
                <mxCell id="240" style="shape=tableRow;horizontal=0;startSize=0;swimlaneHead=0;swimlaneBody=0;fillColor=none;collapsible=0;dropTarget=0;points=[[0,0.5],[1,0.5]];portConstraint=eastwest;top=0;left=0;right=0;bottom=0;hachureGap=4;fontFamily=Helvetica;fontSize=20;labelBackgroundColor=#FFFFFF;" parent="2" vertex="1">
                    <mxGeometry y="420" width="250" height="30" as="geometry"/>
                </mxCell>
                <mxCell id="241" style="shape=partialRectangle;connectable=0;fillColor=none;top=0;left=0;bottom=0;right=0;editable=1;overflow=hidden;hachureGap=4;fontFamily=Helvetica;fontSize=20;labelBackgroundColor=#FFFFFF;" parent="240" vertex="1">
                    <mxGeometry width="30" height="30" as="geometry">
                        <mxRectangle width="30" height="30" as="alternateBounds"/>
                    </mxGeometry>
                </mxCell>
                <mxCell id="242" value="spell_point: int NN" style="shape=partialRectangle;connectable=0;fillColor=none;top=0;left=0;bottom=0;right=0;align=left;spacingLeft=6;overflow=hidden;hachureGap=4;fontFamily=Helvetica;fontSize=20;labelBackgroundColor=#FFFFFF;fontStyle=0" parent="240" vertex="1">
                    <mxGeometry x="30" width="220" height="30" as="geometry">
                        <mxRectangle width="220" height="30" as="alternateBounds"/>
                    </mxGeometry>
                </mxCell>
                <mxCell id="42" style="shape=tableRow;horizontal=0;startSize=0;swimlaneHead=0;swimlaneBody=0;fillColor=none;collapsible=0;dropTarget=0;points=[[0,0.5],[1,0.5]];portConstraint=eastwest;top=0;left=0;right=0;bottom=0;hachureGap=4;fontFamily=Helvetica;fontSize=20;labelBackgroundColor=#FFFFFF;" parent="2" vertex="1">
                    <mxGeometry y="450" width="250" height="30" as="geometry"/>
                </mxCell>
                <mxCell id="43" style="shape=partialRectangle;connectable=0;fillColor=none;top=0;left=0;bottom=0;right=0;editable=1;overflow=hidden;hachureGap=4;fontFamily=Helvetica;fontSize=20;labelBackgroundColor=#FFFFFF;" parent="42" vertex="1">
                    <mxGeometry width="30" height="30" as="geometry">
                        <mxRectangle width="30" height="30" as="alternateBounds"/>
                    </mxGeometry>
                </mxCell>
                <mxCell id="44" value="gold: int  NN" style="shape=partialRectangle;connectable=0;fillColor=none;top=0;left=0;bottom=0;right=0;align=left;spacingLeft=6;overflow=hidden;hachureGap=4;fontFamily=Helvetica;fontSize=20;labelBackgroundColor=#FFFFFF;" parent="42" vertex="1">
                    <mxGeometry x="30" width="220" height="30" as="geometry">
                        <mxRectangle width="220" height="30" as="alternateBounds"/>
                    </mxGeometry>
                </mxCell>
                <mxCell id="33" style="shape=tableRow;horizontal=0;startSize=0;swimlaneHead=0;swimlaneBody=0;fillColor=none;collapsible=0;dropTarget=0;points=[[0,0.5],[1,0.5]];portConstraint=eastwest;top=0;left=0;right=0;bottom=0;hachureGap=4;fontFamily=Helvetica;fontSize=20;labelBackgroundColor=#FFFFFF;" parent="2" vertex="1">
                    <mxGeometry y="480" width="250" height="30" as="geometry"/>
                </mxCell>
                <mxCell id="34" style="shape=partialRectangle;connectable=0;fillColor=none;top=0;left=0;bottom=0;right=0;editable=1;overflow=hidden;hachureGap=4;fontFamily=Helvetica;fontSize=20;labelBackgroundColor=#FFFFFF;" parent="33" vertex="1">
                    <mxGeometry width="30" height="30" as="geometry">
                        <mxRectangle width="30" height="30" as="alternateBounds"/>
                    </mxGeometry>
                </mxCell>
                <mxCell id="35" value="inventory_id: ref" style="shape=partialRectangle;connectable=0;fillColor=none;top=0;left=0;bottom=0;right=0;align=left;spacingLeft=6;overflow=hidden;hachureGap=4;fontFamily=Helvetica;fontSize=20;labelBackgroundColor=#FFFFFF;" parent="33" vertex="1">
                    <mxGeometry x="30" width="220" height="30" as="geometry">
                        <mxRectangle width="220" height="30" as="alternateBounds"/>
                    </mxGeometry>
                </mxCell>
                <mxCell id="36" style="shape=tableRow;horizontal=0;startSize=0;swimlaneHead=0;swimlaneBody=0;fillColor=none;collapsible=0;dropTarget=0;points=[[0,0.5],[1,0.5]];portConstraint=eastwest;top=0;left=0;right=0;bottom=0;hachureGap=4;fontFamily=Helvetica;fontSize=20;labelBackgroundColor=#FFFFFF;" parent="2" vertex="1">
                    <mxGeometry y="510" width="250" height="30" as="geometry"/>
                </mxCell>
                <mxCell id="37" style="shape=partialRectangle;connectable=0;fillColor=none;top=0;left=0;bottom=0;right=0;editable=1;overflow=hidden;hachureGap=4;fontFamily=Helvetica;fontSize=20;labelBackgroundColor=#FFFFFF;" parent="36" vertex="1">
                    <mxGeometry width="30" height="30" as="geometry">
                        <mxRectangle width="30" height="30" as="alternateBounds"/>
                    </mxGeometry>
                </mxCell>
                <mxCell id="38" value="spellbook_id: ref" style="shape=partialRectangle;connectable=0;fillColor=none;top=0;left=0;bottom=0;right=0;align=left;spacingLeft=6;overflow=hidden;hachureGap=4;fontFamily=Helvetica;fontSize=20;labelBackgroundColor=#FFFFFF;" parent="36" vertex="1">
                    <mxGeometry x="30" width="220" height="30" as="geometry">
                        <mxRectangle width="220" height="30" as="alternateBounds"/>
                    </mxGeometry>
                </mxCell>
                <mxCell id="118" value="Forge" style="shape=table;startSize=30;container=1;collapsible=1;childLayout=tableLayout;fixedRows=1;rowLines=1;fontStyle=1;align=center;resizeLast=1;rounded=1;shadow=0;hachureGap=4;fontFamily=Helvetica;fontSize=20;labelBackgroundColor=#FFFFFF;swimlaneFillColor=#FFFFFF;" parent="1" vertex="1">
                    <mxGeometry x="401" y="954" width="230" height="120.00000000000045" as="geometry"/>
                </mxCell>
                <mxCell id="119" value="" style="shape=tableRow;horizontal=0;startSize=0;swimlaneHead=0;swimlaneBody=0;fillColor=none;collapsible=0;dropTarget=0;points=[[0,0.5],[1,0.5]];portConstraint=eastwest;top=0;left=0;right=0;bottom=1;rounded=1;shadow=0;sketch=0;hachureGap=4;jiggle=2;curveFitting=1;fontFamily=Helvetica;fontSize=20;labelBackgroundColor=#FFFFFF;" parent="118" vertex="1">
                    <mxGeometry y="30" width="230" height="30" as="geometry"/>
                </mxCell>
                <mxCell id="120" value="PK" style="shape=partialRectangle;connectable=0;fillColor=none;top=0;left=0;bottom=0;right=0;fontStyle=1;overflow=hidden;rounded=1;shadow=0;sketch=0;hachureGap=4;jiggle=2;curveFitting=1;fontFamily=Helvetica;fontSize=20;labelBackgroundColor=#FFFFFF;" parent="119" vertex="1">
                    <mxGeometry width="30" height="30" as="geometry">
                        <mxRectangle width="30" height="30" as="alternateBounds"/>
                    </mxGeometry>
                </mxCell>
                <mxCell id="121" value="UniqueID" style="shape=partialRectangle;connectable=0;fillColor=none;top=0;left=0;bottom=0;right=0;align=left;spacingLeft=6;fontStyle=5;overflow=hidden;rounded=1;shadow=0;sketch=0;hachureGap=4;jiggle=2;curveFitting=1;fontFamily=Helvetica;fontSize=20;labelBackgroundColor=#FFFFFF;" parent="119" vertex="1">
                    <mxGeometry x="30" width="200" height="30" as="geometry">
                        <mxRectangle width="200" height="30" as="alternateBounds"/>
                    </mxGeometry>
                </mxCell>
                <mxCell id="122" value="" style="shape=tableRow;horizontal=0;startSize=0;swimlaneHead=0;swimlaneBody=0;fillColor=none;collapsible=0;dropTarget=0;points=[[0,0.5],[1,0.5]];portConstraint=eastwest;top=0;left=0;right=0;bottom=0;rounded=1;shadow=0;sketch=0;hachureGap=4;jiggle=2;curveFitting=1;fontFamily=Helvetica;fontSize=20;labelBackgroundColor=#FFFFFF;" parent="118" vertex="1">
                    <mxGeometry y="60" width="230" height="30" as="geometry"/>
                </mxCell>
                <mxCell id="123" value="" style="shape=partialRectangle;connectable=0;fillColor=none;top=0;left=0;bottom=0;right=0;editable=1;overflow=hidden;rounded=1;shadow=0;sketch=0;hachureGap=4;jiggle=2;curveFitting=1;fontFamily=Helvetica;fontSize=20;labelBackgroundColor=#FFFFFF;" parent="122" vertex="1">
                    <mxGeometry width="30" height="30" as="geometry">
                        <mxRectangle width="30" height="30" as="alternateBounds"/>
                    </mxGeometry>
                </mxCell>
                <mxCell id="124" value="magic_type: str NN" style="shape=partialRectangle;connectable=0;fillColor=none;top=0;left=0;bottom=0;right=0;align=left;spacingLeft=6;overflow=hidden;rounded=1;shadow=0;sketch=0;hachureGap=4;jiggle=2;curveFitting=1;fontFamily=Helvetica;fontSize=20;labelBackgroundColor=#FFFFFF;" parent="122" vertex="1">
                    <mxGeometry x="30" width="200" height="30" as="geometry">
                        <mxRectangle width="200" height="30" as="alternateBounds"/>
                    </mxGeometry>
                </mxCell>
                <mxCell id="125" value="" style="shape=tableRow;horizontal=0;startSize=0;swimlaneHead=0;swimlaneBody=0;fillColor=none;collapsible=0;dropTarget=0;points=[[0,0.5],[1,0.5]];portConstraint=eastwest;top=0;left=0;right=0;bottom=0;rounded=1;shadow=0;sketch=0;hachureGap=4;jiggle=2;curveFitting=1;fontFamily=Helvetica;fontSize=20;labelBackgroundColor=#FFFFFF;" parent="118" vertex="1">
                    <mxGeometry y="90" width="230" height="30" as="geometry"/>
                </mxCell>
                <mxCell id="126" value="" style="shape=partialRectangle;connectable=0;fillColor=none;top=0;left=0;bottom=0;right=0;editable=1;overflow=hidden;rounded=1;shadow=0;sketch=0;hachureGap=4;jiggle=2;curveFitting=1;fontFamily=Helvetica;fontSize=20;labelBackgroundColor=#FFFFFF;" parent="125" vertex="1">
                    <mxGeometry width="30" height="30" as="geometry">
                        <mxRectangle width="30" height="30" as="alternateBounds"/>
                    </mxGeometry>
                </mxCell>
                <mxCell id="127" value="keyword: str NN" style="shape=partialRectangle;connectable=0;fillColor=none;top=0;left=0;bottom=0;right=0;align=left;spacingLeft=6;overflow=hidden;rounded=1;shadow=0;sketch=0;hachureGap=4;jiggle=2;curveFitting=1;fontFamily=Helvetica;fontSize=20;labelBackgroundColor=#FFFFFF;" parent="125" vertex="1">
                    <mxGeometry x="30" width="200" height="30" as="geometry">
                        <mxRectangle width="200" height="30" as="alternateBounds"/>
                    </mxGeometry>
                </mxCell>
                <mxCell id="137" value="Spell" style="shape=table;startSize=40;container=1;collapsible=1;childLayout=tableLayout;fixedRows=1;rowLines=1;fontStyle=1;align=center;resizeLast=1;rounded=1;shadow=0;sketch=0;hachureGap=4;jiggle=2;curveFitting=1;fontFamily=Helvetica;fontSize=20;labelBackgroundColor=#FFFFFF;swimlaneFillColor=#FFFFFF;" parent="1" vertex="1">
                    <mxGeometry x="10" y="630" width="240" height="440" as="geometry"/>
                </mxCell>
                <mxCell id="138" value="" style="shape=tableRow;horizontal=0;startSize=0;swimlaneHead=0;swimlaneBody=0;fillColor=none;collapsible=0;dropTarget=0;points=[[0,0.5],[1,0.5]];portConstraint=eastwest;top=0;left=0;right=0;bottom=1;rounded=1;shadow=0;sketch=0;hachureGap=4;jiggle=2;curveFitting=1;fontFamily=Helvetica;fontSize=20;labelBackgroundColor=#FFFFFF;" parent="137" vertex="1">
                    <mxGeometry y="40" width="240" height="40" as="geometry"/>
                </mxCell>
                <mxCell id="139" value="PK" style="shape=partialRectangle;connectable=0;fillColor=none;top=0;left=0;bottom=0;right=0;fontStyle=1;overflow=hidden;rounded=1;shadow=0;sketch=0;hachureGap=4;jiggle=2;curveFitting=1;fontFamily=Helvetica;fontSize=20;labelBackgroundColor=#FFFFFF;" parent="138" vertex="1">
                    <mxGeometry width="30" height="40" as="geometry">
                        <mxRectangle width="30" height="40" as="alternateBounds"/>
                    </mxGeometry>
                </mxCell>
                <mxCell id="140" value="UniqueID" style="shape=partialRectangle;connectable=0;fillColor=none;top=0;left=0;bottom=0;right=0;align=left;spacingLeft=6;fontStyle=5;overflow=hidden;rounded=1;shadow=0;sketch=0;hachureGap=4;jiggle=2;curveFitting=1;fontFamily=Helvetica;fontSize=20;labelBackgroundColor=#FFFFFF;" parent="138" vertex="1">
                    <mxGeometry x="30" width="210" height="40" as="geometry">
                        <mxRectangle width="210" height="40" as="alternateBounds"/>
                    </mxGeometry>
                </mxCell>
                <mxCell id="141" value="" style="shape=tableRow;horizontal=0;startSize=0;swimlaneHead=0;swimlaneBody=0;fillColor=none;collapsible=0;dropTarget=0;points=[[0,0.5],[1,0.5]];portConstraint=eastwest;top=0;left=0;right=0;bottom=0;rounded=1;shadow=0;sketch=0;hachureGap=4;jiggle=2;curveFitting=1;fontFamily=Helvetica;fontSize=20;labelBackgroundColor=#FFFFFF;" parent="137" vertex="1">
                    <mxGeometry y="80" width="240" height="30" as="geometry"/>
                </mxCell>
                <mxCell id="142" value="" style="shape=partialRectangle;connectable=0;fillColor=none;top=0;left=0;bottom=0;right=0;editable=1;overflow=hidden;rounded=1;shadow=0;sketch=0;hachureGap=4;jiggle=2;curveFitting=1;fontFamily=Helvetica;fontSize=20;labelBackgroundColor=#FFFFFF;" parent="141" vertex="1">
                    <mxGeometry width="30" height="30" as="geometry">
                        <mxRectangle width="30" height="30" as="alternateBounds"/>
                    </mxGeometry>
                </mxCell>
                <mxCell id="143" value="spell_name: str NN UQ&#10;" style="shape=partialRectangle;connectable=0;fillColor=none;top=0;left=0;bottom=0;right=0;align=left;spacingLeft=6;overflow=hidden;rounded=1;shadow=0;sketch=0;hachureGap=4;jiggle=2;curveFitting=1;fontFamily=Helvetica;fontSize=18;labelBackgroundColor=#FFFFFF;" parent="141" vertex="1">
                    <mxGeometry x="30" width="210" height="30" as="geometry">
                        <mxRectangle width="210" height="30" as="alternateBounds"/>
                    </mxGeometry>
                </mxCell>
                <mxCell id="144" value="" style="shape=tableRow;horizontal=0;startSize=0;swimlaneHead=0;swimlaneBody=0;fillColor=none;collapsible=0;dropTarget=0;points=[[0,0.5],[1,0.5]];portConstraint=eastwest;top=0;left=0;right=0;bottom=0;rounded=1;shadow=0;sketch=0;hachureGap=4;jiggle=2;curveFitting=1;fontFamily=Helvetica;fontSize=20;labelBackgroundColor=#FFFFFF;" parent="137" vertex="1">
                    <mxGeometry y="110" width="240" height="30" as="geometry"/>
                </mxCell>
                <mxCell id="145" value="" style="shape=partialRectangle;connectable=0;fillColor=none;top=0;left=0;bottom=0;right=0;editable=1;overflow=hidden;rounded=1;shadow=0;sketch=0;hachureGap=4;jiggle=2;curveFitting=1;fontFamily=Helvetica;fontSize=20;labelBackgroundColor=#FFFFFF;" parent="144" vertex="1">
                    <mxGeometry width="30" height="30" as="geometry">
                        <mxRectangle width="30" height="30" as="alternateBounds"/>
                    </mxGeometry>
                </mxCell>
                <mxCell id="146" value="magic_type: str NN" style="shape=partialRectangle;connectable=0;fillColor=none;top=0;left=0;bottom=0;right=0;align=left;spacingLeft=6;overflow=hidden;rounded=1;shadow=0;sketch=0;hachureGap=4;jiggle=2;curveFitting=1;fontFamily=Helvetica;fontSize=20;labelBackgroundColor=#FFFFFF;" parent="144" vertex="1">
                    <mxGeometry x="30" width="210" height="30" as="geometry">
                        <mxRectangle width="210" height="30" as="alternateBounds"/>
                    </mxGeometry>
                </mxCell>
                <mxCell id="147" value="" style="shape=tableRow;horizontal=0;startSize=0;swimlaneHead=0;swimlaneBody=0;fillColor=none;collapsible=0;dropTarget=0;points=[[0,0.5],[1,0.5]];portConstraint=eastwest;top=0;left=0;right=0;bottom=0;rounded=1;shadow=0;sketch=0;hachureGap=4;jiggle=2;curveFitting=1;fontFamily=Helvetica;fontSize=20;labelBackgroundColor=#FFFFFF;" parent="137" vertex="1">
                    <mxGeometry y="140" width="240" height="30" as="geometry"/>
                </mxCell>
                <mxCell id="148" value="" style="shape=partialRectangle;connectable=0;fillColor=none;top=0;left=0;bottom=0;right=0;editable=1;overflow=hidden;rounded=1;shadow=0;sketch=0;hachureGap=4;jiggle=2;curveFitting=1;fontFamily=Helvetica;fontSize=20;labelBackgroundColor=#FFFFFF;" parent="147" vertex="1">
                    <mxGeometry width="30" height="30" as="geometry">
                        <mxRectangle width="30" height="30" as="alternateBounds"/>
                    </mxGeometry>
                </mxCell>
                <mxCell id="149" value="power: int NN" style="shape=partialRectangle;connectable=0;fillColor=none;top=0;left=0;bottom=0;right=0;align=left;spacingLeft=6;overflow=hidden;rounded=1;shadow=0;sketch=0;hachureGap=4;jiggle=2;curveFitting=1;fontFamily=Helvetica;fontSize=20;labelBackgroundColor=#FFFFFF;" parent="147" vertex="1">
                    <mxGeometry x="30" width="210" height="30" as="geometry">
                        <mxRectangle width="210" height="30" as="alternateBounds"/>
                    </mxGeometry>
                </mxCell>
                <mxCell id="171" style="shape=tableRow;horizontal=0;startSize=0;swimlaneHead=0;swimlaneBody=0;fillColor=none;collapsible=0;dropTarget=0;points=[[0,0.5],[1,0.5]];portConstraint=eastwest;top=0;left=0;right=0;bottom=0;rounded=1;shadow=0;sketch=0;hachureGap=4;jiggle=2;curveFitting=1;fontFamily=Helvetica;fontSize=20;labelBackgroundColor=#FFFFFF;" parent="137" vertex="1">
                    <mxGeometry y="170" width="240" height="30" as="geometry"/>
                </mxCell>
                <mxCell id="172" style="shape=partialRectangle;connectable=0;fillColor=none;top=0;left=0;bottom=0;right=0;editable=1;overflow=hidden;rounded=1;shadow=0;sketch=0;hachureGap=4;jiggle=2;curveFitting=1;fontFamily=Helvetica;fontSize=20;labelBackgroundColor=#FFFFFF;" parent="171" vertex="1">
                    <mxGeometry width="30" height="30" as="geometry">
                        <mxRectangle width="30" height="30" as="alternateBounds"/>
                    </mxGeometry>
                </mxCell>
                <mxCell id="173" value="target: int NN" style="shape=partialRectangle;connectable=0;fillColor=none;top=0;left=0;bottom=0;right=0;align=left;spacingLeft=6;overflow=hidden;rounded=1;shadow=0;sketch=0;hachureGap=4;jiggle=2;curveFitting=1;fontFamily=Helvetica;fontSize=20;labelBackgroundColor=#FFFFFF;" parent="171" vertex="1">
                    <mxGeometry x="30" width="210" height="30" as="geometry">
                        <mxRectangle width="210" height="30" as="alternateBounds"/>
                    </mxGeometry>
                </mxCell>
                <mxCell id="168" style="shape=tableRow;horizontal=0;startSize=0;swimlaneHead=0;swimlaneBody=0;fillColor=none;collapsible=0;dropTarget=0;points=[[0,0.5],[1,0.5]];portConstraint=eastwest;top=0;left=0;right=0;bottom=0;rounded=1;shadow=0;sketch=0;hachureGap=4;jiggle=2;curveFitting=1;fontFamily=Helvetica;fontSize=20;labelBackgroundColor=#FFFFFF;" parent="137" vertex="1">
                    <mxGeometry y="200" width="240" height="30" as="geometry"/>
                </mxCell>
                <mxCell id="169" style="shape=partialRectangle;connectable=0;fillColor=none;top=0;left=0;bottom=0;right=0;editable=1;overflow=hidden;rounded=1;shadow=0;sketch=0;hachureGap=4;jiggle=2;curveFitting=1;fontFamily=Helvetica;fontSize=20;labelBackgroundColor=#FFFFFF;" parent="168" vertex="1">
                    <mxGeometry width="30" height="30" as="geometry">
                        <mxRectangle width="30" height="30" as="alternateBounds"/>
                    </mxGeometry>
                </mxCell>
                <mxCell id="170" value="magic_cost: int  NN" style="shape=partialRectangle;connectable=0;fillColor=none;top=0;left=0;bottom=0;right=0;align=left;spacingLeft=6;overflow=hidden;rounded=1;shadow=0;sketch=0;hachureGap=4;jiggle=2;curveFitting=1;fontFamily=Helvetica;fontSize=20;labelBackgroundColor=#FFFFFF;" parent="168" vertex="1">
                    <mxGeometry x="30" width="210" height="30" as="geometry">
                        <mxRectangle width="210" height="30" as="alternateBounds"/>
                    </mxGeometry>
                </mxCell>
                <mxCell id="165" style="shape=tableRow;horizontal=0;startSize=0;swimlaneHead=0;swimlaneBody=0;fillColor=none;collapsible=0;dropTarget=0;points=[[0,0.5],[1,0.5]];portConstraint=eastwest;top=0;left=0;right=0;bottom=0;rounded=1;shadow=0;sketch=0;hachureGap=4;jiggle=2;curveFitting=1;fontFamily=Helvetica;fontSize=20;labelBackgroundColor=#FFFFFF;" parent="137" vertex="1">
                    <mxGeometry y="230" width="240" height="30" as="geometry"/>
                </mxCell>
                <mxCell id="166" style="shape=partialRectangle;connectable=0;fillColor=none;top=0;left=0;bottom=0;right=0;editable=1;overflow=hidden;rounded=1;shadow=0;sketch=0;hachureGap=4;jiggle=2;curveFitting=1;fontFamily=Helvetica;fontSize=20;labelBackgroundColor=#FFFFFF;" parent="165" vertex="1">
                    <mxGeometry width="30" height="30" as="geometry">
                        <mxRectangle width="30" height="30" as="alternateBounds"/>
                    </mxGeometry>
                </mxCell>
                <mxCell id="167" value="use: int NN" style="shape=partialRectangle;connectable=0;fillColor=none;top=0;left=0;bottom=0;right=0;align=left;spacingLeft=6;overflow=hidden;rounded=1;shadow=0;sketch=0;hachureGap=4;jiggle=2;curveFitting=1;fontFamily=Helvetica;fontSize=20;labelBackgroundColor=#FFFFFF;" parent="165" vertex="1">
                    <mxGeometry x="30" width="210" height="30" as="geometry">
                        <mxRectangle width="210" height="30" as="alternateBounds"/>
                    </mxGeometry>
                </mxCell>
                <mxCell id="162" style="shape=tableRow;horizontal=0;startSize=0;swimlaneHead=0;swimlaneBody=0;fillColor=none;collapsible=0;dropTarget=0;points=[[0,0.5],[1,0.5]];portConstraint=eastwest;top=0;left=0;right=0;bottom=0;rounded=1;shadow=0;sketch=0;hachureGap=4;jiggle=2;curveFitting=1;fontFamily=Helvetica;fontSize=20;labelBackgroundColor=#FFFFFF;" parent="137" vertex="1">
                    <mxGeometry y="260" width="240" height="30" as="geometry"/>
                </mxCell>
                <mxCell id="163" style="shape=partialRectangle;connectable=0;fillColor=none;top=0;left=0;bottom=0;right=0;editable=1;overflow=hidden;rounded=1;shadow=0;sketch=0;hachureGap=4;jiggle=2;curveFitting=1;fontFamily=Helvetica;fontSize=20;labelBackgroundColor=#FFFFFF;" parent="162" vertex="1">
                    <mxGeometry width="30" height="30" as="geometry">
                        <mxRectangle width="30" height="30" as="alternateBounds"/>
                    </mxGeometry>
                </mxCell>
                <mxCell id="164" value="level: int  NN" style="shape=partialRectangle;connectable=0;fillColor=none;top=0;left=0;bottom=0;right=0;align=left;spacingLeft=6;overflow=hidden;rounded=1;shadow=0;sketch=0;hachureGap=4;jiggle=2;curveFitting=1;fontFamily=Helvetica;fontSize=20;labelBackgroundColor=#FFFFFF;" parent="162" vertex="1">
                    <mxGeometry x="30" width="210" height="30" as="geometry">
                        <mxRectangle width="210" height="30" as="alternateBounds"/>
                    </mxGeometry>
                </mxCell>
                <mxCell id="159" style="shape=tableRow;horizontal=0;startSize=0;swimlaneHead=0;swimlaneBody=0;fillColor=none;collapsible=0;dropTarget=0;points=[[0,0.5],[1,0.5]];portConstraint=eastwest;top=0;left=0;right=0;bottom=0;rounded=1;shadow=0;sketch=0;hachureGap=4;jiggle=2;curveFitting=1;fontFamily=Helvetica;fontSize=20;labelBackgroundColor=#FFFFFF;" parent="137" vertex="1">
                    <mxGeometry y="290" width="240" height="30" as="geometry"/>
                </mxCell>
                <mxCell id="160" style="shape=partialRectangle;connectable=0;fillColor=none;top=0;left=0;bottom=0;right=0;editable=1;overflow=hidden;rounded=1;shadow=0;sketch=0;hachureGap=4;jiggle=2;curveFitting=1;fontFamily=Helvetica;fontSize=20;labelBackgroundColor=#FFFFFF;" parent="159" vertex="1">
                    <mxGeometry width="30" height="30" as="geometry">
                        <mxRectangle width="30" height="30" as="alternateBounds"/>
                    </mxGeometry>
                </mxCell>
                <mxCell id="161" value="char_limit: int  NN" style="shape=partialRectangle;connectable=0;fillColor=none;top=0;left=0;bottom=0;right=0;align=left;spacingLeft=6;overflow=hidden;rounded=1;shadow=0;sketch=0;hachureGap=4;jiggle=2;curveFitting=1;fontFamily=Helvetica;fontSize=20;labelBackgroundColor=#FFFFFF;" parent="159" vertex="1">
                    <mxGeometry x="30" width="210" height="30" as="geometry">
                        <mxRectangle width="210" height="30" as="alternateBounds"/>
                    </mxGeometry>
                </mxCell>
                <mxCell id="156" style="shape=tableRow;horizontal=0;startSize=0;swimlaneHead=0;swimlaneBody=0;fillColor=none;collapsible=0;dropTarget=0;points=[[0,0.5],[1,0.5]];portConstraint=eastwest;top=0;left=0;right=0;bottom=0;rounded=1;shadow=0;sketch=0;hachureGap=4;jiggle=2;curveFitting=1;fontFamily=Helvetica;fontSize=20;labelBackgroundColor=#FFFFFF;" parent="137" vertex="1">
                    <mxGeometry y="320" width="240" height="30" as="geometry"/>
                </mxCell>
                <mxCell id="157" style="shape=partialRectangle;connectable=0;fillColor=none;top=0;left=0;bottom=0;right=0;editable=1;overflow=hidden;rounded=1;shadow=0;sketch=0;hachureGap=4;jiggle=2;curveFitting=1;fontFamily=Helvetica;fontSize=20;labelBackgroundColor=#FFFFFF;" parent="156" vertex="1">
                    <mxGeometry width="30" height="30" as="geometry">
                        <mxRectangle width="30" height="30" as="alternateBounds"/>
                    </mxGeometry>
                </mxCell>
                <mxCell id="158" value="forge_val: ref  NN" style="shape=partialRectangle;connectable=0;fillColor=none;top=0;left=0;bottom=0;right=0;align=left;spacingLeft=6;overflow=hidden;rounded=1;shadow=0;sketch=0;hachureGap=4;jiggle=2;curveFitting=1;fontFamily=Helvetica;fontSize=20;labelBackgroundColor=#FFFFFF;" parent="156" vertex="1">
                    <mxGeometry x="30" width="210" height="30" as="geometry">
                        <mxRectangle width="210" height="30" as="alternateBounds"/>
                    </mxGeometry>
                </mxCell>
                <mxCell id="153" style="shape=tableRow;horizontal=0;startSize=0;swimlaneHead=0;swimlaneBody=0;fillColor=none;collapsible=0;dropTarget=0;points=[[0,0.5],[1,0.5]];portConstraint=eastwest;top=0;left=0;right=0;bottom=0;rounded=1;shadow=0;sketch=0;hachureGap=4;jiggle=2;curveFitting=1;fontFamily=Helvetica;fontSize=20;labelBackgroundColor=#FFFFFF;" parent="137" vertex="1">
                    <mxGeometry y="350" width="240" height="30" as="geometry"/>
                </mxCell>
                <mxCell id="154" style="shape=partialRectangle;connectable=0;fillColor=none;top=0;left=0;bottom=0;right=0;editable=1;overflow=hidden;rounded=1;shadow=0;sketch=0;hachureGap=4;jiggle=2;curveFitting=1;fontFamily=Helvetica;fontSize=20;labelBackgroundColor=#FFFFFF;" parent="153" vertex="1">
                    <mxGeometry width="30" height="30" as="geometry">
                        <mxRectangle width="30" height="30" as="alternateBounds"/>
                    </mxGeometry>
                </mxCell>
                <mxCell id="155" value="magic_words: Lstr  NN" style="shape=partialRectangle;connectable=0;fillColor=none;top=0;left=0;bottom=0;right=0;align=left;spacingLeft=6;overflow=hidden;rounded=1;shadow=0;sketch=0;hachureGap=4;jiggle=2;curveFitting=1;fontFamily=Helvetica;fontSize=18;labelBackgroundColor=#FFFFFF;" parent="153" vertex="1">
                    <mxGeometry x="30" width="210" height="30" as="geometry">
                        <mxRectangle width="210" height="30" as="alternateBounds"/>
                    </mxGeometry>
                </mxCell>
                <mxCell id="150" style="shape=tableRow;horizontal=0;startSize=0;swimlaneHead=0;swimlaneBody=0;fillColor=none;collapsible=0;dropTarget=0;points=[[0,0.5],[1,0.5]];portConstraint=eastwest;top=0;left=0;right=0;bottom=0;rounded=1;shadow=0;sketch=0;hachureGap=4;jiggle=2;curveFitting=1;fontFamily=Helvetica;fontSize=20;labelBackgroundColor=#FFFFFF;" parent="137" vertex="1">
                    <mxGeometry y="380" width="240" height="30" as="geometry"/>
                </mxCell>
                <mxCell id="151" style="shape=partialRectangle;connectable=0;fillColor=none;top=0;left=0;bottom=0;right=0;editable=1;overflow=hidden;rounded=1;shadow=0;sketch=0;hachureGap=4;jiggle=2;curveFitting=1;fontFamily=Helvetica;fontSize=20;labelBackgroundColor=#FFFFFF;" parent="150" vertex="1">
                    <mxGeometry width="30" height="30" as="geometry">
                        <mxRectangle width="30" height="30" as="alternateBounds"/>
                    </mxGeometry>
                </mxCell>
                <mxCell id="152" value="matched_words: int  NN" style="shape=partialRectangle;connectable=0;fillColor=none;top=0;left=0;bottom=0;right=0;align=left;spacingLeft=6;overflow=hidden;rounded=1;shadow=0;sketch=0;hachureGap=4;jiggle=2;curveFitting=1;fontFamily=Helvetica;fontSize=18;labelBackgroundColor=#FFFFFF;" parent="150" vertex="1">
                    <mxGeometry x="30" width="210" height="30" as="geometry">
                        <mxRectangle width="210" height="30" as="alternateBounds"/>
                    </mxGeometry>
                </mxCell>
                <mxCell id="231" style="shape=tableRow;horizontal=0;startSize=0;swimlaneHead=0;swimlaneBody=0;fillColor=none;collapsible=0;dropTarget=0;points=[[0,0.5],[1,0.5]];portConstraint=eastwest;top=0;left=0;right=0;bottom=0;rounded=1;shadow=0;sketch=0;hachureGap=4;jiggle=2;curveFitting=1;fontFamily=Helvetica;fontSize=20;labelBackgroundColor=#FFFFFF;" parent="137" vertex="1">
                    <mxGeometry y="410" width="240" height="30" as="geometry"/>
                </mxCell>
                <mxCell id="232" style="shape=partialRectangle;connectable=0;fillColor=none;top=0;left=0;bottom=0;right=0;editable=1;overflow=hidden;rounded=1;shadow=0;sketch=0;hachureGap=4;jiggle=2;curveFitting=1;fontFamily=Helvetica;fontSize=20;labelBackgroundColor=#FFFFFF;" parent="231" vertex="1">
                    <mxGeometry width="30" height="30" as="geometry">
                        <mxRectangle width="30" height="30" as="alternateBounds"/>
                    </mxGeometry>
                </mxCell>
                <mxCell id="233" value="in_deck: bol NN" style="shape=partialRectangle;connectable=0;fillColor=none;top=0;left=0;bottom=0;right=0;align=left;spacingLeft=6;overflow=hidden;rounded=1;shadow=0;sketch=0;hachureGap=4;jiggle=2;curveFitting=1;fontFamily=Helvetica;fontSize=18;labelBackgroundColor=#FFFFFF;" parent="231" vertex="1">
                    <mxGeometry x="30" width="210" height="30" as="geometry">
                        <mxRectangle width="210" height="30" as="alternateBounds"/>
                    </mxGeometry>
                </mxCell>
                <mxCell id="177" value="Inventory" style="shape=table;startSize=30;container=1;collapsible=1;childLayout=tableLayout;fixedRows=1;rowLines=1;fontStyle=1;align=center;resizeLast=1;rounded=1;shadow=0;sketch=0;hachureGap=4;jiggle=2;curveFitting=1;fontFamily=Helvetica;fontSize=20;labelBackgroundColor=#FFFFFF;swimlaneFillColor=#FFFFFF;" parent="1" vertex="1">
                    <mxGeometry x="402" y="26" width="229" height="90" as="geometry"/>
                </mxCell>
                <mxCell id="178" value="" style="shape=tableRow;horizontal=0;startSize=0;swimlaneHead=0;swimlaneBody=0;fillColor=none;collapsible=0;dropTarget=0;points=[[0,0.5],[1,0.5]];portConstraint=eastwest;top=0;left=0;right=0;bottom=1;rounded=1;shadow=0;sketch=0;hachureGap=4;jiggle=2;curveFitting=1;fontFamily=Helvetica;fontSize=20;labelBackgroundColor=#FFFFFF;" parent="177" vertex="1">
                    <mxGeometry y="30" width="229" height="30" as="geometry"/>
                </mxCell>
                <mxCell id="179" value="PK" style="shape=partialRectangle;connectable=0;fillColor=none;top=0;left=0;bottom=0;right=0;fontStyle=1;overflow=hidden;rounded=1;shadow=0;sketch=0;hachureGap=4;jiggle=2;curveFitting=1;fontFamily=Helvetica;fontSize=20;labelBackgroundColor=#FFFFFF;" parent="178" vertex="1">
                    <mxGeometry width="30" height="30" as="geometry">
                        <mxRectangle width="30" height="30" as="alternateBounds"/>
                    </mxGeometry>
                </mxCell>
                <mxCell id="180" value="UniqueID" style="shape=partialRectangle;connectable=0;fillColor=none;top=0;left=0;bottom=0;right=0;align=left;spacingLeft=6;fontStyle=5;overflow=hidden;rounded=1;shadow=0;sketch=0;hachureGap=4;jiggle=2;curveFitting=1;fontFamily=Helvetica;fontSize=20;labelBackgroundColor=#FFFFFF;" parent="178" vertex="1">
                    <mxGeometry x="30" width="199" height="30" as="geometry">
                        <mxRectangle width="199" height="30" as="alternateBounds"/>
                    </mxGeometry>
                </mxCell>
                <mxCell id="181" value="" style="shape=tableRow;horizontal=0;startSize=0;swimlaneHead=0;swimlaneBody=0;fillColor=none;collapsible=0;dropTarget=0;points=[[0,0.5],[1,0.5]];portConstraint=eastwest;top=0;left=0;right=0;bottom=0;rounded=1;shadow=0;sketch=0;hachureGap=4;jiggle=2;curveFitting=1;fontFamily=Helvetica;fontSize=20;labelBackgroundColor=#FFFFFF;" parent="177" vertex="1">
                    <mxGeometry y="60" width="229" height="30" as="geometry"/>
                </mxCell>
                <mxCell id="182" value="" style="shape=partialRectangle;connectable=0;fillColor=none;top=0;left=0;bottom=0;right=0;editable=1;overflow=hidden;rounded=1;shadow=0;sketch=0;hachureGap=4;jiggle=2;curveFitting=1;fontFamily=Helvetica;fontSize=20;labelBackgroundColor=#FFFFFF;" parent="181" vertex="1">
                    <mxGeometry width="30" height="30" as="geometry">
                        <mxRectangle width="30" height="30" as="alternateBounds"/>
                    </mxGeometry>
                </mxCell>
                <mxCell id="183" value="item_id" style="shape=partialRectangle;connectable=0;fillColor=none;top=0;left=0;bottom=0;right=0;align=left;spacingLeft=6;overflow=hidden;rounded=1;shadow=0;sketch=0;hachureGap=4;jiggle=2;curveFitting=1;fontFamily=Helvetica;fontSize=18;labelBackgroundColor=#FFFFFF;" parent="181" vertex="1">
                    <mxGeometry x="30" width="199" height="30" as="geometry">
                        <mxRectangle width="199" height="30" as="alternateBounds"/>
                    </mxGeometry>
                </mxCell>
                <mxCell id="214" value="" style="edgeStyle=entityRelationEdgeStyle;fontSize=12;html=1;endArrow=ERzeroToMany;startArrow=ERzeroToOne;hachureGap=4;fontFamily=Helvetica;labelBackgroundColor=#FFFFFF;" parent="1" source="36" target="138" edge="1">
                    <mxGeometry width="100" height="100" relative="1" as="geometry">
                        <mxPoint x="220" y="450" as="sourcePoint"/>
                        <mxPoint x="310" y="520" as="targetPoint"/>
                    </mxGeometry>
                </mxCell>
                <mxCell id="219" value="" style="edgeStyle=entityRelationEdgeStyle;fontSize=12;html=1;endArrow=ERoneToMany;endFill=0;startArrow=ERzeroToOne;sketch=0;hachureGap=4;jiggle=2;curveFitting=1;fontFamily=Helvetica;exitX=1;exitY=0.5;exitDx=0;exitDy=0;labelBackgroundColor=#FFFFFF;startFill=0;entryX=0;entryY=0.5;entryDx=0;entryDy=0;" parent="1" source="156" target="119" edge="1">
                    <mxGeometry width="100" height="100" relative="1" as="geometry">
                        <mxPoint x="330" y="740" as="sourcePoint"/>
                        <mxPoint x="310" y="965" as="targetPoint"/>
                    </mxGeometry>
                </mxCell>
                <mxCell id="221" value="&lt;b&gt;Key&lt;/b&gt;" style="swimlane;fontStyle=0;childLayout=stackLayout;horizontal=1;startSize=26;fillColor=default;horizontalStack=0;resizeParent=1;resizeParentMax=0;resizeLast=0;collapsible=1;marginBottom=0;html=1;rounded=1;shadow=0;sketch=0;hachureGap=4;jiggle=2;curveFitting=1;fontFamily=Helvetica;fontSize=18;labelBackgroundColor=#FFFFFF;swimlaneFillColor=#FFFFFF;" parent="1" vertex="1">
                    <mxGeometry x="780" y="940" width="210" height="208" as="geometry"/>
                </mxCell>
                <mxCell id="222" value="NN = Not Null" style="text;strokeColor=none;fillColor=none;align=left;verticalAlign=top;spacingLeft=4;spacingRight=4;overflow=hidden;rotatable=0;points=[[0,0.5],[1,0.5]];portConstraint=eastwest;whiteSpace=wrap;html=1;rounded=1;shadow=0;sketch=0;hachureGap=4;jiggle=2;curveFitting=1;fontFamily=Helvetica;fontSize=18;labelBackgroundColor=#FFFFFF;" parent="221" vertex="1">
                    <mxGeometry y="26" width="210" height="26" as="geometry"/>
                </mxCell>
                <mxCell id="223" value="UQ = Unique" style="text;strokeColor=none;fillColor=none;align=left;verticalAlign=top;spacingLeft=4;spacingRight=4;overflow=hidden;rotatable=0;points=[[0,0.5],[1,0.5]];portConstraint=eastwest;whiteSpace=wrap;html=1;rounded=1;shadow=0;sketch=0;hachureGap=4;jiggle=2;curveFitting=1;fontFamily=Helvetica;fontSize=18;labelBackgroundColor=#FFFFFF;" parent="221" vertex="1">
                    <mxGeometry y="52" width="210" height="26" as="geometry"/>
                </mxCell>
                <mxCell id="224" value="int = integer" style="text;strokeColor=none;fillColor=none;align=left;verticalAlign=top;spacingLeft=4;spacingRight=4;overflow=hidden;rotatable=0;points=[[0,0.5],[1,0.5]];portConstraint=eastwest;whiteSpace=wrap;html=1;rounded=1;shadow=0;sketch=0;hachureGap=4;jiggle=2;curveFitting=1;fontFamily=Helvetica;fontSize=18;labelBackgroundColor=#FFFFFF;" parent="221" vertex="1">
                    <mxGeometry y="78" width="210" height="26" as="geometry"/>
                </mxCell>
                <mxCell id="226" value="str = varchar(50-100)" style="text;strokeColor=none;fillColor=none;align=left;verticalAlign=top;spacingLeft=4;spacingRight=4;overflow=hidden;rotatable=0;points=[[0,0.5],[1,0.5]];portConstraint=eastwest;whiteSpace=wrap;html=1;rounded=1;shadow=0;sketch=0;hachureGap=4;jiggle=2;curveFitting=1;fontFamily=Helvetica;fontSize=18;labelBackgroundColor=#FFFFFF;" parent="221" vertex="1">
                    <mxGeometry y="104" width="210" height="26" as="geometry"/>
                </mxCell>
                <mxCell id="225" value="Lstr = text" style="text;strokeColor=none;fillColor=none;align=left;verticalAlign=top;spacingLeft=4;spacingRight=4;overflow=hidden;rotatable=0;points=[[0,0.5],[1,0.5]];portConstraint=eastwest;whiteSpace=wrap;html=1;rounded=1;shadow=0;sketch=0;hachureGap=4;jiggle=2;curveFitting=1;fontFamily=Helvetica;fontSize=18;labelBackgroundColor=#FFFFFF;" parent="221" vertex="1">
                    <mxGeometry y="130" width="210" height="26" as="geometry"/>
                </mxCell>
                <mxCell id="246" value="bol = boolean" style="text;strokeColor=none;fillColor=none;align=left;verticalAlign=top;spacingLeft=4;spacingRight=4;overflow=hidden;rotatable=0;points=[[0,0.5],[1,0.5]];portConstraint=eastwest;whiteSpace=wrap;html=1;rounded=1;shadow=0;sketch=0;hachureGap=4;jiggle=2;curveFitting=1;fontFamily=Helvetica;fontSize=18;labelBackgroundColor=#FFFFFF;" parent="221" vertex="1">
                    <mxGeometry y="156" width="210" height="26" as="geometry"/>
                </mxCell>
                <mxCell id="227" value="ref = reference/relationship" style="text;strokeColor=none;fillColor=none;align=left;verticalAlign=top;spacingLeft=4;spacingRight=4;overflow=hidden;rotatable=0;points=[[0,0.5],[1,0.5]];portConstraint=eastwest;whiteSpace=wrap;html=1;rounded=1;shadow=0;sketch=0;hachureGap=4;jiggle=2;curveFitting=1;fontFamily=Helvetica;fontSize=16;labelBackgroundColor=#FFFFFF;" parent="221" vertex="1">
                    <mxGeometry y="182" width="210" height="26" as="geometry"/>
                </mxCell>
                <mxCell id="250" value="Enemy" style="shape=table;startSize=30;container=1;collapsible=1;childLayout=tableLayout;fixedRows=1;rowLines=1;fontStyle=1;align=center;resizeLast=1;hachureGap=4;fontFamily=Helvetica;fontSize=20;rounded=1;swimlaneLine=1;shadow=0;labelBackgroundColor=#FFFFFF;swimlaneFillColor=#FFFFFF;" vertex="1" parent="1">
                    <mxGeometry x="780" width="250" height="540" as="geometry">
                        <mxRectangle x="20" y="50" width="90" height="40" as="alternateBounds"/>
                    </mxGeometry>
                </mxCell>
                <mxCell id="251" value="" style="shape=tableRow;horizontal=0;startSize=0;swimlaneHead=0;swimlaneBody=0;fillColor=none;collapsible=0;dropTarget=0;points=[[0,0.5],[1,0.5]];portConstraint=eastwest;top=0;left=0;right=0;bottom=1;hachureGap=4;fontFamily=Helvetica;fontSize=20;labelBackgroundColor=#FFFFFF;" vertex="1" parent="250">
                    <mxGeometry y="30" width="250" height="30" as="geometry"/>
                </mxCell>
                <mxCell id="252" value="PK" style="shape=partialRectangle;connectable=0;fillColor=none;top=0;left=0;bottom=0;right=0;fontStyle=1;overflow=hidden;hachureGap=4;fontFamily=Helvetica;fontSize=20;labelBackgroundColor=#FFFFFF;" vertex="1" parent="251">
                    <mxGeometry width="30" height="30" as="geometry">
                        <mxRectangle width="30" height="30" as="alternateBounds"/>
                    </mxGeometry>
                </mxCell>
                <mxCell id="253" value="UniqueID" style="shape=partialRectangle;connectable=0;fillColor=none;top=0;left=0;bottom=0;right=0;align=left;spacingLeft=6;fontStyle=5;overflow=hidden;hachureGap=4;fontFamily=Helvetica;fontSize=20;labelBackgroundColor=#FFFFFF;" vertex="1" parent="251">
                    <mxGeometry x="30" width="220" height="30" as="geometry">
                        <mxRectangle width="220" height="30" as="alternateBounds"/>
                    </mxGeometry>
                </mxCell>
                <mxCell id="254" value="" style="shape=tableRow;horizontal=0;startSize=0;swimlaneHead=0;swimlaneBody=0;fillColor=none;collapsible=0;dropTarget=0;points=[[0,0.5],[1,0.5]];portConstraint=eastwest;top=0;left=0;right=0;bottom=0;hachureGap=4;fontFamily=Helvetica;fontSize=20;labelBackgroundColor=#FFFFFF;" vertex="1" parent="250">
                    <mxGeometry y="60" width="250" height="30" as="geometry"/>
                </mxCell>
                <mxCell id="255" value="" style="shape=partialRectangle;connectable=0;fillColor=none;top=0;left=0;bottom=0;right=0;editable=1;overflow=hidden;hachureGap=4;fontFamily=Helvetica;fontSize=20;labelBackgroundColor=#FFFFFF;" vertex="1" parent="254">
                    <mxGeometry width="30" height="30" as="geometry">
                        <mxRectangle width="30" height="30" as="alternateBounds"/>
                    </mxGeometry>
                </mxCell>
                <mxCell id="256" value="player_name: str NN UQ" style="shape=partialRectangle;connectable=0;fillColor=none;top=0;left=0;bottom=0;right=0;align=left;spacingLeft=6;overflow=hidden;hachureGap=4;fontFamily=Helvetica;fontSize=18;labelBackgroundColor=#FFFFFF;" vertex="1" parent="254">
                    <mxGeometry x="30" width="220" height="30" as="geometry">
                        <mxRectangle width="220" height="30" as="alternateBounds"/>
                    </mxGeometry>
                </mxCell>
                <mxCell id="257" value="" style="shape=tableRow;horizontal=0;startSize=0;swimlaneHead=0;swimlaneBody=0;fillColor=none;collapsible=0;dropTarget=0;points=[[0,0.5],[1,0.5]];portConstraint=eastwest;top=0;left=0;right=0;bottom=0;hachureGap=4;fontFamily=Helvetica;fontSize=20;labelBackgroundColor=#FFFFFF;" vertex="1" parent="250">
                    <mxGeometry y="90" width="250" height="30" as="geometry"/>
                </mxCell>
                <mxCell id="258" value="" style="shape=partialRectangle;connectable=0;fillColor=none;top=0;left=0;bottom=0;right=0;editable=1;overflow=hidden;hachureGap=4;fontFamily=Helvetica;fontSize=20;labelBackgroundColor=#FFFFFF;" vertex="1" parent="257">
                    <mxGeometry width="30" height="30" as="geometry">
                        <mxRectangle width="30" height="30" as="alternateBounds"/>
                    </mxGeometry>
                </mxCell>
                <mxCell id="259" value="race: str NN" style="shape=partialRectangle;connectable=0;fillColor=none;top=0;left=0;bottom=0;right=0;align=left;spacingLeft=6;overflow=hidden;hachureGap=4;fontFamily=Helvetica;fontSize=20;labelBackgroundColor=#FFFFFF;" vertex="1" parent="257">
                    <mxGeometry x="30" width="220" height="30" as="geometry">
                        <mxRectangle width="220" height="30" as="alternateBounds"/>
                    </mxGeometry>
                </mxCell>
                <mxCell id="260" style="shape=tableRow;horizontal=0;startSize=0;swimlaneHead=0;swimlaneBody=0;fillColor=none;collapsible=0;dropTarget=0;points=[[0,0.5],[1,0.5]];portConstraint=eastwest;top=0;left=0;right=0;bottom=0;hachureGap=4;fontFamily=Helvetica;fontSize=20;labelBackgroundColor=#FFFFFF;" vertex="1" parent="250">
                    <mxGeometry y="120" width="250" height="30" as="geometry"/>
                </mxCell>
                <mxCell id="261" style="shape=partialRectangle;connectable=0;fillColor=none;top=0;left=0;bottom=0;right=0;editable=1;overflow=hidden;hachureGap=4;fontFamily=Helvetica;fontSize=20;labelBackgroundColor=#FFFFFF;" vertex="1" parent="260">
                    <mxGeometry width="30" height="30" as="geometry">
                        <mxRectangle width="30" height="30" as="alternateBounds"/>
                    </mxGeometry>
                </mxCell>
                <mxCell id="262" value="alignment: str NN" style="shape=partialRectangle;connectable=0;fillColor=none;top=0;left=0;bottom=0;right=0;align=left;spacingLeft=6;overflow=hidden;hachureGap=4;fontFamily=Helvetica;fontSize=20;labelBackgroundColor=#FFFFFF;" vertex="1" parent="260">
                    <mxGeometry x="30" width="220" height="30" as="geometry">
                        <mxRectangle width="220" height="30" as="alternateBounds"/>
                    </mxGeometry>
                </mxCell>
                <mxCell id="263" value="" style="shape=tableRow;horizontal=0;startSize=0;swimlaneHead=0;swimlaneBody=0;fillColor=none;collapsible=0;dropTarget=0;points=[[0,0.5],[1,0.5]];portConstraint=eastwest;top=0;left=0;right=0;bottom=0;hachureGap=4;fontFamily=Helvetica;fontSize=20;labelBackgroundColor=#FFFFFF;" vertex="1" parent="250">
                    <mxGeometry y="150" width="250" height="30" as="geometry"/>
                </mxCell>
                <mxCell id="264" value="" style="shape=partialRectangle;connectable=0;fillColor=none;top=0;left=0;bottom=0;right=0;editable=1;overflow=hidden;hachureGap=4;fontFamily=Helvetica;fontSize=20;labelBackgroundColor=#FFFFFF;" vertex="1" parent="263">
                    <mxGeometry width="30" height="30" as="geometry">
                        <mxRectangle width="30" height="30" as="alternateBounds"/>
                    </mxGeometry>
                </mxCell>
                <mxCell id="265" value="health: int NN" style="shape=partialRectangle;connectable=0;fillColor=none;top=0;left=0;bottom=0;right=0;align=left;spacingLeft=6;overflow=hidden;hachureGap=4;fontFamily=Helvetica;fontSize=20;fontStyle=0;labelBackgroundColor=#FFFFFF;" vertex="1" parent="263">
                    <mxGeometry x="30" width="220" height="30" as="geometry">
                        <mxRectangle width="220" height="30" as="alternateBounds"/>
                    </mxGeometry>
                </mxCell>
                <mxCell id="266" style="shape=tableRow;horizontal=0;startSize=0;swimlaneHead=0;swimlaneBody=0;fillColor=none;collapsible=0;dropTarget=0;points=[[0,0.5],[1,0.5]];portConstraint=eastwest;top=0;left=0;right=0;bottom=0;hachureGap=4;fontFamily=Helvetica;fontSize=20;labelBackgroundColor=#FFFFFF;" vertex="1" parent="250">
                    <mxGeometry y="180" width="250" height="30" as="geometry"/>
                </mxCell>
                <mxCell id="267" style="shape=partialRectangle;connectable=0;fillColor=none;top=0;left=0;bottom=0;right=0;editable=1;overflow=hidden;hachureGap=4;fontFamily=Helvetica;fontSize=20;labelBackgroundColor=#FFFFFF;" vertex="1" parent="266">
                    <mxGeometry width="30" height="30" as="geometry">
                        <mxRectangle width="30" height="30" as="alternateBounds"/>
                    </mxGeometry>
                </mxCell>
                <mxCell id="268" value="magic: int  NN" style="shape=partialRectangle;connectable=0;fillColor=none;top=0;left=0;bottom=0;right=0;align=left;spacingLeft=6;overflow=hidden;hachureGap=4;fontFamily=Helvetica;fontSize=20;labelBackgroundColor=#FFFFFF;" vertex="1" parent="266">
                    <mxGeometry x="30" width="220" height="30" as="geometry">
                        <mxRectangle width="220" height="30" as="alternateBounds"/>
                    </mxGeometry>
                </mxCell>
                <mxCell id="269" style="shape=tableRow;horizontal=0;startSize=0;swimlaneHead=0;swimlaneBody=0;fillColor=none;collapsible=0;dropTarget=0;points=[[0,0.5],[1,0.5]];portConstraint=eastwest;top=0;left=0;right=0;bottom=0;hachureGap=4;fontFamily=Helvetica;fontSize=20;labelBackgroundColor=#FFFFFF;" vertex="1" parent="250">
                    <mxGeometry y="210" width="250" height="30" as="geometry"/>
                </mxCell>
                <mxCell id="270" style="shape=partialRectangle;connectable=0;fillColor=none;top=0;left=0;bottom=0;right=0;editable=1;overflow=hidden;hachureGap=4;fontFamily=Helvetica;fontSize=20;labelBackgroundColor=#FFFFFF;" vertex="1" parent="269">
                    <mxGeometry width="30" height="30" as="geometry">
                        <mxRectangle width="30" height="30" as="alternateBounds"/>
                    </mxGeometry>
                </mxCell>
                <mxCell id="271" value="resistance: int  NN" style="shape=partialRectangle;connectable=0;fillColor=none;top=0;left=0;bottom=0;right=0;align=left;spacingLeft=6;overflow=hidden;hachureGap=4;fontFamily=Helvetica;fontSize=20;labelBackgroundColor=#FFFFFF;" vertex="1" parent="269">
                    <mxGeometry x="30" width="220" height="30" as="geometry">
                        <mxRectangle width="220" height="30" as="alternateBounds"/>
                    </mxGeometry>
                </mxCell>
                <mxCell id="272" style="shape=tableRow;horizontal=0;startSize=0;swimlaneHead=0;swimlaneBody=0;fillColor=none;collapsible=0;dropTarget=0;points=[[0,0.5],[1,0.5]];portConstraint=eastwest;top=0;left=0;right=0;bottom=0;hachureGap=4;fontFamily=Helvetica;fontSize=20;labelBackgroundColor=#FFFFFF;" vertex="1" parent="250">
                    <mxGeometry y="240" width="250" height="30" as="geometry"/>
                </mxCell>
                <mxCell id="273" style="shape=partialRectangle;connectable=0;fillColor=none;top=0;left=0;bottom=0;right=0;editable=1;overflow=hidden;hachureGap=4;fontFamily=Helvetica;fontSize=20;labelBackgroundColor=#FFFFFF;" vertex="1" parent="272">
                    <mxGeometry width="30" height="30" as="geometry">
                        <mxRectangle width="30" height="30" as="alternateBounds"/>
                    </mxGeometry>
                </mxCell>
                <mxCell id="274" value="defense: int NN" style="shape=partialRectangle;connectable=0;fillColor=none;top=0;left=0;bottom=0;right=0;align=left;spacingLeft=6;overflow=hidden;hachureGap=4;fontFamily=Helvetica;fontSize=20;labelBackgroundColor=#FFFFFF;" vertex="1" parent="272">
                    <mxGeometry x="30" width="220" height="30" as="geometry">
                        <mxRectangle width="220" height="30" as="alternateBounds"/>
                    </mxGeometry>
                </mxCell>
                <mxCell id="275" style="shape=tableRow;horizontal=0;startSize=0;swimlaneHead=0;swimlaneBody=0;fillColor=none;collapsible=0;dropTarget=0;points=[[0,0.5],[1,0.5]];portConstraint=eastwest;top=0;left=0;right=0;bottom=0;hachureGap=4;fontFamily=Helvetica;fontSize=20;labelBackgroundColor=#FFFFFF;" vertex="1" parent="250">
                    <mxGeometry y="270" width="250" height="30" as="geometry"/>
                </mxCell>
                <mxCell id="276" style="shape=partialRectangle;connectable=0;fillColor=none;top=0;left=0;bottom=0;right=0;editable=1;overflow=hidden;hachureGap=4;fontFamily=Helvetica;fontSize=20;labelBackgroundColor=#FFFFFF;" vertex="1" parent="275">
                    <mxGeometry width="30" height="30" as="geometry">
                        <mxRectangle width="30" height="30" as="alternateBounds"/>
                    </mxGeometry>
                </mxCell>
                <mxCell id="277" value="accuracy: int NN" style="shape=partialRectangle;connectable=0;fillColor=none;top=0;left=0;bottom=0;right=0;align=left;spacingLeft=6;overflow=hidden;hachureGap=4;fontFamily=Helvetica;fontSize=20;labelBackgroundColor=#FFFFFF;" vertex="1" parent="275">
                    <mxGeometry x="30" width="220" height="30" as="geometry">
                        <mxRectangle width="220" height="30" as="alternateBounds"/>
                    </mxGeometry>
                </mxCell>
                <mxCell id="278" style="shape=tableRow;horizontal=0;startSize=0;swimlaneHead=0;swimlaneBody=0;fillColor=none;collapsible=0;dropTarget=0;points=[[0,0.5],[1,0.5]];portConstraint=eastwest;top=0;left=0;right=0;bottom=0;hachureGap=4;fontFamily=Helvetica;fontSize=20;labelBackgroundColor=#FFFFFF;" vertex="1" parent="250">
                    <mxGeometry y="300" width="250" height="30" as="geometry"/>
                </mxCell>
                <mxCell id="279" style="shape=partialRectangle;connectable=0;fillColor=none;top=0;left=0;bottom=0;right=0;editable=1;overflow=hidden;hachureGap=4;fontFamily=Helvetica;fontSize=20;labelBackgroundColor=#FFFFFF;" vertex="1" parent="278">
                    <mxGeometry width="30" height="30" as="geometry">
                        <mxRectangle width="30" height="30" as="alternateBounds"/>
                    </mxGeometry>
                </mxCell>
                <mxCell id="280" value="luck: int  NN" style="shape=partialRectangle;connectable=0;fillColor=none;top=0;left=0;bottom=0;right=0;align=left;spacingLeft=6;overflow=hidden;hachureGap=4;fontFamily=Helvetica;fontSize=20;labelBackgroundColor=#FFFFFF;" vertex="1" parent="278">
                    <mxGeometry x="30" width="220" height="30" as="geometry">
                        <mxRectangle width="220" height="30" as="alternateBounds"/>
                    </mxGeometry>
                </mxCell>
                <mxCell id="281" style="shape=tableRow;horizontal=0;startSize=0;swimlaneHead=0;swimlaneBody=0;fillColor=none;collapsible=0;dropTarget=0;points=[[0,0.5],[1,0.5]];portConstraint=eastwest;top=0;left=0;right=0;bottom=0;hachureGap=4;fontFamily=Helvetica;fontSize=20;labelBackgroundColor=#FFFFFF;" vertex="1" parent="250">
                    <mxGeometry y="330" width="250" height="30" as="geometry"/>
                </mxCell>
                <mxCell id="282" style="shape=partialRectangle;connectable=0;fillColor=none;top=0;left=0;bottom=0;right=0;editable=1;overflow=hidden;hachureGap=4;fontFamily=Helvetica;fontSize=20;labelBackgroundColor=#FFFFFF;" vertex="1" parent="281">
                    <mxGeometry width="30" height="30" as="geometry">
                        <mxRectangle width="30" height="30" as="alternateBounds"/>
                    </mxGeometry>
                </mxCell>
                <mxCell id="283" value="constitution: int NN" style="shape=partialRectangle;connectable=0;fillColor=none;top=0;left=0;bottom=0;right=0;align=left;spacingLeft=6;overflow=hidden;hachureGap=4;fontFamily=Helvetica;fontSize=20;labelBackgroundColor=#FFFFFF;" vertex="1" parent="281">
                    <mxGeometry x="30" width="220" height="30" as="geometry">
                        <mxRectangle width="220" height="30" as="alternateBounds"/>
                    </mxGeometry>
                </mxCell>
                <mxCell id="284" style="shape=tableRow;horizontal=0;startSize=0;swimlaneHead=0;swimlaneBody=0;fillColor=none;collapsible=0;dropTarget=0;points=[[0,0.5],[1,0.5]];portConstraint=eastwest;top=0;left=0;right=0;bottom=0;hachureGap=4;fontFamily=Helvetica;fontSize=20;labelBackgroundColor=#FFFFFF;" vertex="1" parent="250">
                    <mxGeometry y="360" width="250" height="30" as="geometry"/>
                </mxCell>
                <mxCell id="285" style="shape=partialRectangle;connectable=0;fillColor=none;top=0;left=0;bottom=0;right=0;editable=1;overflow=hidden;hachureGap=4;fontFamily=Helvetica;fontSize=20;labelBackgroundColor=#FFFFFF;" vertex="1" parent="284">
                    <mxGeometry width="30" height="30" as="geometry">
                        <mxRectangle width="30" height="30" as="alternateBounds"/>
                    </mxGeometry>
                </mxCell>
                <mxCell id="286" value="exp: int  NN" style="shape=partialRectangle;connectable=0;fillColor=none;top=0;left=0;bottom=0;right=0;align=left;spacingLeft=6;overflow=hidden;hachureGap=4;fontFamily=Helvetica;fontSize=20;labelBackgroundColor=#FFFFFF;" vertex="1" parent="284">
                    <mxGeometry x="30" width="220" height="30" as="geometry">
                        <mxRectangle width="220" height="30" as="alternateBounds"/>
                    </mxGeometry>
                </mxCell>
                <mxCell id="287" style="shape=tableRow;horizontal=0;startSize=0;swimlaneHead=0;swimlaneBody=0;fillColor=none;collapsible=0;dropTarget=0;points=[[0,0.5],[1,0.5]];portConstraint=eastwest;top=0;left=0;right=0;bottom=0;hachureGap=4;fontFamily=Helvetica;fontSize=20;labelBackgroundColor=#FFFFFF;" vertex="1" parent="250">
                    <mxGeometry y="390" width="250" height="30" as="geometry"/>
                </mxCell>
                <mxCell id="288" style="shape=partialRectangle;connectable=0;fillColor=none;top=0;left=0;bottom=0;right=0;editable=1;overflow=hidden;hachureGap=4;fontFamily=Helvetica;fontSize=20;labelBackgroundColor=#FFFFFF;" vertex="1" parent="287">
                    <mxGeometry width="30" height="30" as="geometry">
                        <mxRectangle width="30" height="30" as="alternateBounds"/>
                    </mxGeometry>
                </mxCell>
                <mxCell id="289" value="level: int  NN" style="shape=partialRectangle;connectable=0;fillColor=none;top=0;left=0;bottom=0;right=0;align=left;spacingLeft=6;overflow=hidden;hachureGap=4;fontFamily=Helvetica;fontSize=20;labelBackgroundColor=#FFFFFF;" vertex="1" parent="287">
                    <mxGeometry x="30" width="220" height="30" as="geometry">
                        <mxRectangle width="220" height="30" as="alternateBounds"/>
                    </mxGeometry>
                </mxCell>
                <mxCell id="293" style="shape=tableRow;horizontal=0;startSize=0;swimlaneHead=0;swimlaneBody=0;fillColor=none;collapsible=0;dropTarget=0;points=[[0,0.5],[1,0.5]];portConstraint=eastwest;top=0;left=0;right=0;bottom=0;hachureGap=4;fontFamily=Helvetica;fontSize=20;labelBackgroundColor=#FFFFFF;" vertex="1" parent="250">
                    <mxGeometry y="420" width="250" height="30" as="geometry"/>
                </mxCell>
                <mxCell id="294" style="shape=partialRectangle;connectable=0;fillColor=none;top=0;left=0;bottom=0;right=0;editable=1;overflow=hidden;hachureGap=4;fontFamily=Helvetica;fontSize=20;labelBackgroundColor=#FFFFFF;" vertex="1" parent="293">
                    <mxGeometry width="30" height="30" as="geometry">
                        <mxRectangle width="30" height="30" as="alternateBounds"/>
                    </mxGeometry>
                </mxCell>
                <mxCell id="295" value="gold: int  NN" style="shape=partialRectangle;connectable=0;fillColor=none;top=0;left=0;bottom=0;right=0;align=left;spacingLeft=6;overflow=hidden;hachureGap=4;fontFamily=Helvetica;fontSize=20;labelBackgroundColor=#FFFFFF;" vertex="1" parent="293">
                    <mxGeometry x="30" width="220" height="30" as="geometry">
                        <mxRectangle width="220" height="30" as="alternateBounds"/>
                    </mxGeometry>
                </mxCell>
                <mxCell id="296" style="shape=tableRow;horizontal=0;startSize=0;swimlaneHead=0;swimlaneBody=0;fillColor=none;collapsible=0;dropTarget=0;points=[[0,0.5],[1,0.5]];portConstraint=eastwest;top=0;left=0;right=0;bottom=0;hachureGap=4;fontFamily=Helvetica;fontSize=20;labelBackgroundColor=#FFFFFF;" vertex="1" parent="250">
                    <mxGeometry y="450" width="250" height="30" as="geometry"/>
                </mxCell>
                <mxCell id="297" style="shape=partialRectangle;connectable=0;fillColor=none;top=0;left=0;bottom=0;right=0;editable=1;overflow=hidden;hachureGap=4;fontFamily=Helvetica;fontSize=20;labelBackgroundColor=#FFFFFF;" vertex="1" parent="296">
                    <mxGeometry width="30" height="30" as="geometry">
                        <mxRectangle width="30" height="30" as="alternateBounds"/>
                    </mxGeometry>
                </mxCell>
                <mxCell id="298" value="sprite: str NN" style="shape=partialRectangle;connectable=0;fillColor=none;top=0;left=0;bottom=0;right=0;align=left;spacingLeft=6;overflow=hidden;hachureGap=4;fontFamily=Helvetica;fontSize=20;labelBackgroundColor=#FFFFFF;" vertex="1" parent="296">
                    <mxGeometry x="30" width="220" height="30" as="geometry">
                        <mxRectangle width="220" height="30" as="alternateBounds"/>
                    </mxGeometry>
                </mxCell>
                <mxCell id="299" style="shape=tableRow;horizontal=0;startSize=0;swimlaneHead=0;swimlaneBody=0;fillColor=none;collapsible=0;dropTarget=0;points=[[0,0.5],[1,0.5]];portConstraint=eastwest;top=0;left=0;right=0;bottom=0;hachureGap=4;fontFamily=Helvetica;fontSize=20;labelBackgroundColor=#FFFFFF;" vertex="1" parent="250">
                    <mxGeometry y="480" width="250" height="30" as="geometry"/>
                </mxCell>
                <mxCell id="300" style="shape=partialRectangle;connectable=0;fillColor=none;top=0;left=0;bottom=0;right=0;editable=1;overflow=hidden;hachureGap=4;fontFamily=Helvetica;fontSize=20;labelBackgroundColor=#FFFFFF;" vertex="1" parent="299">
                    <mxGeometry width="30" height="30" as="geometry">
                        <mxRectangle width="30" height="30" as="alternateBounds"/>
                    </mxGeometry>
                </mxCell>
                <mxCell id="301" value="qunatity: int" style="shape=partialRectangle;connectable=0;fillColor=none;top=0;left=0;bottom=0;right=0;align=left;spacingLeft=6;overflow=hidden;hachureGap=4;fontFamily=Helvetica;fontSize=20;labelBackgroundColor=#FFFFFF;" vertex="1" parent="299">
                    <mxGeometry x="30" width="220" height="30" as="geometry">
                        <mxRectangle width="220" height="30" as="alternateBounds"/>
                    </mxGeometry>
                </mxCell>
                <mxCell id="302" style="shape=tableRow;horizontal=0;startSize=0;swimlaneHead=0;swimlaneBody=0;fillColor=none;collapsible=0;dropTarget=0;points=[[0,0.5],[1,0.5]];portConstraint=eastwest;top=0;left=0;right=0;bottom=0;hachureGap=4;fontFamily=Helvetica;fontSize=20;labelBackgroundColor=#FFFFFF;" vertex="1" parent="250">
                    <mxGeometry y="510" width="250" height="30" as="geometry"/>
                </mxCell>
                <mxCell id="303" style="shape=partialRectangle;connectable=0;fillColor=none;top=0;left=0;bottom=0;right=0;editable=1;overflow=hidden;hachureGap=4;fontFamily=Helvetica;fontSize=20;labelBackgroundColor=#FFFFFF;" vertex="1" parent="302">
                    <mxGeometry width="30" height="30" as="geometry">
                        <mxRectangle width="30" height="30" as="alternateBounds"/>
                    </mxGeometry>
                </mxCell>
                <mxCell id="304" value="inventory_id: ref" style="shape=partialRectangle;connectable=0;fillColor=none;top=0;left=0;bottom=0;right=0;align=left;spacingLeft=6;overflow=hidden;hachureGap=4;fontFamily=Helvetica;fontSize=20;labelBackgroundColor=#FFFFFF;" vertex="1" parent="302">
                    <mxGeometry x="30" width="220" height="30" as="geometry">
                        <mxRectangle width="220" height="30" as="alternateBounds"/>
                    </mxGeometry>
                </mxCell>
                <mxCell id="322" value="Item" style="shape=table;startSize=30;container=1;collapsible=1;childLayout=tableLayout;fixedRows=1;rowLines=1;fontStyle=1;align=center;resizeLast=1;rounded=1;shadow=0;sketch=0;hachureGap=4;jiggle=2;curveFitting=1;fontFamily=Helvetica;fontSize=20;labelBackgroundColor=#FFFFFF;swimlaneFillColor=#FFFFFF;" vertex="1" parent="1">
                    <mxGeometry x="401" y="176" width="229" height="365" as="geometry"/>
                </mxCell>
                <mxCell id="323" value="" style="shape=tableRow;horizontal=0;startSize=0;swimlaneHead=0;swimlaneBody=0;fillColor=none;collapsible=0;dropTarget=0;points=[[0,0.5],[1,0.5]];portConstraint=eastwest;top=0;left=0;right=0;bottom=1;rounded=1;shadow=0;sketch=0;hachureGap=4;jiggle=2;curveFitting=1;fontFamily=Helvetica;fontSize=20;labelBackgroundColor=#FFFFFF;" vertex="1" parent="322">
                    <mxGeometry y="30" width="229" height="30" as="geometry"/>
                </mxCell>
                <mxCell id="324" value="PK" style="shape=partialRectangle;connectable=0;fillColor=none;top=0;left=0;bottom=0;right=0;fontStyle=1;overflow=hidden;rounded=1;shadow=0;sketch=0;hachureGap=4;jiggle=2;curveFitting=1;fontFamily=Helvetica;fontSize=20;labelBackgroundColor=#FFFFFF;" vertex="1" parent="323">
                    <mxGeometry width="30" height="30" as="geometry">
                        <mxRectangle width="30" height="30" as="alternateBounds"/>
                    </mxGeometry>
                </mxCell>
                <mxCell id="325" value="UniqueID" style="shape=partialRectangle;connectable=0;fillColor=none;top=0;left=0;bottom=0;right=0;align=left;spacingLeft=6;fontStyle=5;overflow=hidden;rounded=1;shadow=0;sketch=0;hachureGap=4;jiggle=2;curveFitting=1;fontFamily=Helvetica;fontSize=20;labelBackgroundColor=#FFFFFF;" vertex="1" parent="323">
                    <mxGeometry x="30" width="199" height="30" as="geometry">
                        <mxRectangle width="199" height="30" as="alternateBounds"/>
                    </mxGeometry>
                </mxCell>
                <mxCell id="326" value="" style="shape=tableRow;horizontal=0;startSize=0;swimlaneHead=0;swimlaneBody=0;fillColor=none;collapsible=0;dropTarget=0;points=[[0,0.5],[1,0.5]];portConstraint=eastwest;top=0;left=0;right=0;bottom=0;rounded=1;shadow=0;sketch=0;hachureGap=4;jiggle=2;curveFitting=1;fontFamily=Helvetica;fontSize=20;labelBackgroundColor=#FFFFFF;" vertex="1" parent="322">
                    <mxGeometry y="60" width="229" height="30" as="geometry"/>
                </mxCell>
                <mxCell id="327" value="" style="shape=partialRectangle;connectable=0;fillColor=none;top=0;left=0;bottom=0;right=0;editable=1;overflow=hidden;rounded=1;shadow=0;sketch=0;hachureGap=4;jiggle=2;curveFitting=1;fontFamily=Helvetica;fontSize=20;labelBackgroundColor=#FFFFFF;" vertex="1" parent="326">
                    <mxGeometry width="30" height="30" as="geometry">
                        <mxRectangle width="30" height="30" as="alternateBounds"/>
                    </mxGeometry>
                </mxCell>
                <mxCell id="328" value="item_name: str NN UQ" style="shape=partialRectangle;connectable=0;fillColor=none;top=0;left=0;bottom=0;right=0;align=left;spacingLeft=6;overflow=hidden;rounded=1;shadow=0;sketch=0;hachureGap=4;jiggle=2;curveFitting=1;fontFamily=Helvetica;fontSize=18;labelBackgroundColor=#FFFFFF;" vertex="1" parent="326">
                    <mxGeometry x="30" width="199" height="30" as="geometry">
                        <mxRectangle width="199" height="30" as="alternateBounds"/>
                    </mxGeometry>
                </mxCell>
                <mxCell id="329" value="" style="shape=tableRow;horizontal=0;startSize=0;swimlaneHead=0;swimlaneBody=0;fillColor=none;collapsible=0;dropTarget=0;points=[[0,0.5],[1,0.5]];portConstraint=eastwest;top=0;left=0;right=0;bottom=0;rounded=1;shadow=0;sketch=0;hachureGap=4;jiggle=2;curveFitting=1;fontFamily=Helvetica;fontSize=20;labelBackgroundColor=#FFFFFF;" vertex="1" parent="322">
                    <mxGeometry y="90" width="229" height="30" as="geometry"/>
                </mxCell>
                <mxCell id="330" value="" style="shape=partialRectangle;connectable=0;fillColor=none;top=0;left=0;bottom=0;right=0;editable=1;overflow=hidden;rounded=1;shadow=0;sketch=0;hachureGap=4;jiggle=2;curveFitting=1;fontFamily=Helvetica;fontSize=20;labelBackgroundColor=#FFFFFF;" vertex="1" parent="329">
                    <mxGeometry width="30" height="30" as="geometry">
                        <mxRectangle width="30" height="30" as="alternateBounds"/>
                    </mxGeometry>
                </mxCell>
                <mxCell id="331" value="type: str NN" style="shape=partialRectangle;connectable=0;fillColor=none;top=0;left=0;bottom=0;right=0;align=left;spacingLeft=6;overflow=hidden;rounded=1;shadow=0;sketch=0;hachureGap=4;jiggle=2;curveFitting=1;fontFamily=Helvetica;fontSize=20;labelBackgroundColor=#FFFFFF;" vertex="1" parent="329">
                    <mxGeometry x="30" width="199" height="30" as="geometry">
                        <mxRectangle width="199" height="30" as="alternateBounds"/>
                    </mxGeometry>
                </mxCell>
                <mxCell id="332" value="" style="shape=tableRow;horizontal=0;startSize=0;swimlaneHead=0;swimlaneBody=0;fillColor=none;collapsible=0;dropTarget=0;points=[[0,0.5],[1,0.5]];portConstraint=eastwest;top=0;left=0;right=0;bottom=0;rounded=1;shadow=0;sketch=0;hachureGap=4;jiggle=2;curveFitting=1;fontFamily=Helvetica;fontSize=20;labelBackgroundColor=#FFFFFF;" vertex="1" parent="322">
                    <mxGeometry y="120" width="229" height="35" as="geometry"/>
                </mxCell>
                <mxCell id="333" value="" style="shape=partialRectangle;connectable=0;fillColor=none;top=0;left=0;bottom=0;right=0;editable=1;overflow=hidden;rounded=1;shadow=0;sketch=0;hachureGap=4;jiggle=2;curveFitting=1;fontFamily=Helvetica;fontSize=20;labelBackgroundColor=#FFFFFF;" vertex="1" parent="332">
                    <mxGeometry width="30" height="35" as="geometry">
                        <mxRectangle width="30" height="35" as="alternateBounds"/>
                    </mxGeometry>
                </mxCell>
                <mxCell id="334" value="health: int" style="shape=partialRectangle;connectable=0;fillColor=none;top=0;left=0;bottom=0;right=0;align=left;spacingLeft=6;overflow=hidden;rounded=1;shadow=0;sketch=0;hachureGap=4;jiggle=2;curveFitting=1;fontFamily=Helvetica;fontSize=20;labelBackgroundColor=#FFFFFF;" vertex="1" parent="332">
                    <mxGeometry x="30" width="199" height="35" as="geometry">
                        <mxRectangle width="199" height="35" as="alternateBounds"/>
                    </mxGeometry>
                </mxCell>
                <mxCell id="335" style="shape=tableRow;horizontal=0;startSize=0;swimlaneHead=0;swimlaneBody=0;fillColor=none;collapsible=0;dropTarget=0;points=[[0,0.5],[1,0.5]];portConstraint=eastwest;top=0;left=0;right=0;bottom=0;rounded=1;shadow=0;sketch=0;hachureGap=4;jiggle=2;curveFitting=1;fontFamily=Helvetica;fontSize=20;labelBackgroundColor=#FFFFFF;" vertex="1" parent="322">
                    <mxGeometry y="155" width="229" height="30" as="geometry"/>
                </mxCell>
                <mxCell id="336" style="shape=partialRectangle;connectable=0;fillColor=none;top=0;left=0;bottom=0;right=0;editable=1;overflow=hidden;rounded=1;shadow=0;sketch=0;hachureGap=4;jiggle=2;curveFitting=1;fontFamily=Helvetica;fontSize=20;labelBackgroundColor=#FFFFFF;" vertex="1" parent="335">
                    <mxGeometry width="30" height="30" as="geometry">
                        <mxRectangle width="30" height="30" as="alternateBounds"/>
                    </mxGeometry>
                </mxCell>
                <mxCell id="337" value="magic: int" style="shape=partialRectangle;connectable=0;fillColor=none;top=0;left=0;bottom=0;right=0;align=left;spacingLeft=6;overflow=hidden;rounded=1;shadow=0;sketch=0;hachureGap=4;jiggle=2;curveFitting=1;fontFamily=Helvetica;fontSize=20;labelBackgroundColor=#FFFFFF;" vertex="1" parent="335">
                    <mxGeometry x="30" width="199" height="30" as="geometry">
                        <mxRectangle width="199" height="30" as="alternateBounds"/>
                    </mxGeometry>
                </mxCell>
                <mxCell id="338" style="shape=tableRow;horizontal=0;startSize=0;swimlaneHead=0;swimlaneBody=0;fillColor=none;collapsible=0;dropTarget=0;points=[[0,0.5],[1,0.5]];portConstraint=eastwest;top=0;left=0;right=0;bottom=0;rounded=1;shadow=0;sketch=0;hachureGap=4;jiggle=2;curveFitting=1;fontFamily=Helvetica;fontSize=20;labelBackgroundColor=#FFFFFF;" vertex="1" parent="322">
                    <mxGeometry y="185" width="229" height="30" as="geometry"/>
                </mxCell>
                <mxCell id="339" style="shape=partialRectangle;connectable=0;fillColor=none;top=0;left=0;bottom=0;right=0;editable=1;overflow=hidden;rounded=1;shadow=0;sketch=0;hachureGap=4;jiggle=2;curveFitting=1;fontFamily=Helvetica;fontSize=20;labelBackgroundColor=#FFFFFF;" vertex="1" parent="338">
                    <mxGeometry width="30" height="30" as="geometry">
                        <mxRectangle width="30" height="30" as="alternateBounds"/>
                    </mxGeometry>
                </mxCell>
                <mxCell id="340" value="resistance: int" style="shape=partialRectangle;connectable=0;fillColor=none;top=0;left=0;bottom=0;right=0;align=left;spacingLeft=6;overflow=hidden;rounded=1;shadow=0;sketch=0;hachureGap=4;jiggle=2;curveFitting=1;fontFamily=Helvetica;fontSize=20;labelBackgroundColor=#FFFFFF;" vertex="1" parent="338">
                    <mxGeometry x="30" width="199" height="30" as="geometry">
                        <mxRectangle width="199" height="30" as="alternateBounds"/>
                    </mxGeometry>
                </mxCell>
                <mxCell id="341" style="shape=tableRow;horizontal=0;startSize=0;swimlaneHead=0;swimlaneBody=0;fillColor=none;collapsible=0;dropTarget=0;points=[[0,0.5],[1,0.5]];portConstraint=eastwest;top=0;left=0;right=0;bottom=0;rounded=1;shadow=0;sketch=0;hachureGap=4;jiggle=2;curveFitting=1;fontFamily=Helvetica;fontSize=20;labelBackgroundColor=#FFFFFF;" vertex="1" parent="322">
                    <mxGeometry y="215" width="229" height="30" as="geometry"/>
                </mxCell>
                <mxCell id="342" style="shape=partialRectangle;connectable=0;fillColor=none;top=0;left=0;bottom=0;right=0;editable=1;overflow=hidden;rounded=1;shadow=0;sketch=0;hachureGap=4;jiggle=2;curveFitting=1;fontFamily=Helvetica;fontSize=20;labelBackgroundColor=#FFFFFF;" vertex="1" parent="341">
                    <mxGeometry width="30" height="30" as="geometry">
                        <mxRectangle width="30" height="30" as="alternateBounds"/>
                    </mxGeometry>
                </mxCell>
                <mxCell id="343" value="defense: int" style="shape=partialRectangle;connectable=0;fillColor=none;top=0;left=0;bottom=0;right=0;align=left;spacingLeft=6;overflow=hidden;rounded=1;shadow=0;sketch=0;hachureGap=4;jiggle=2;curveFitting=1;fontFamily=Helvetica;fontSize=20;labelBackgroundColor=#FFFFFF;" vertex="1" parent="341">
                    <mxGeometry x="30" width="199" height="30" as="geometry">
                        <mxRectangle width="199" height="30" as="alternateBounds"/>
                    </mxGeometry>
                </mxCell>
                <mxCell id="344" style="shape=tableRow;horizontal=0;startSize=0;swimlaneHead=0;swimlaneBody=0;fillColor=none;collapsible=0;dropTarget=0;points=[[0,0.5],[1,0.5]];portConstraint=eastwest;top=0;left=0;right=0;bottom=0;rounded=1;shadow=0;sketch=0;hachureGap=4;jiggle=2;curveFitting=1;fontFamily=Helvetica;fontSize=20;labelBackgroundColor=#FFFFFF;" vertex="1" parent="322">
                    <mxGeometry y="245" width="229" height="30" as="geometry"/>
                </mxCell>
                <mxCell id="345" style="shape=partialRectangle;connectable=0;fillColor=none;top=0;left=0;bottom=0;right=0;editable=1;overflow=hidden;rounded=1;shadow=0;sketch=0;hachureGap=4;jiggle=2;curveFitting=1;fontFamily=Helvetica;fontSize=20;labelBackgroundColor=#FFFFFF;" vertex="1" parent="344">
                    <mxGeometry width="30" height="30" as="geometry">
                        <mxRectangle width="30" height="30" as="alternateBounds"/>
                    </mxGeometry>
                </mxCell>
                <mxCell id="346" value="weight: int NN" style="shape=partialRectangle;connectable=0;fillColor=none;top=0;left=0;bottom=0;right=0;align=left;spacingLeft=6;overflow=hidden;rounded=1;shadow=0;sketch=0;hachureGap=4;jiggle=2;curveFitting=1;fontFamily=Helvetica;fontSize=20;labelBackgroundColor=#FFFFFF;" vertex="1" parent="344">
                    <mxGeometry x="30" width="199" height="30" as="geometry">
                        <mxRectangle width="199" height="30" as="alternateBounds"/>
                    </mxGeometry>
                </mxCell>
                <mxCell id="347" style="shape=tableRow;horizontal=0;startSize=0;swimlaneHead=0;swimlaneBody=0;fillColor=none;collapsible=0;dropTarget=0;points=[[0,0.5],[1,0.5]];portConstraint=eastwest;top=0;left=0;right=0;bottom=0;rounded=1;shadow=0;sketch=0;hachureGap=4;jiggle=2;curveFitting=1;fontFamily=Helvetica;fontSize=20;labelBackgroundColor=#FFFFFF;" vertex="1" parent="322">
                    <mxGeometry y="275" width="229" height="30" as="geometry"/>
                </mxCell>
                <mxCell id="348" style="shape=partialRectangle;connectable=0;fillColor=none;top=0;left=0;bottom=0;right=0;editable=1;overflow=hidden;rounded=1;shadow=0;sketch=0;hachureGap=4;jiggle=2;curveFitting=1;fontFamily=Helvetica;fontSize=20;labelBackgroundColor=#FFFFFF;" vertex="1" parent="347">
                    <mxGeometry width="30" height="30" as="geometry">
                        <mxRectangle width="30" height="30" as="alternateBounds"/>
                    </mxGeometry>
                </mxCell>
                <mxCell id="349" value="cost: int NN" style="shape=partialRectangle;connectable=0;fillColor=none;top=0;left=0;bottom=0;right=0;align=left;spacingLeft=6;overflow=hidden;rounded=1;shadow=0;sketch=0;hachureGap=4;jiggle=2;curveFitting=1;fontFamily=Helvetica;fontSize=20;labelBackgroundColor=#FFFFFF;" vertex="1" parent="347">
                    <mxGeometry x="30" width="199" height="30" as="geometry">
                        <mxRectangle width="199" height="30" as="alternateBounds"/>
                    </mxGeometry>
                </mxCell>
                <mxCell id="350" style="shape=tableRow;horizontal=0;startSize=0;swimlaneHead=0;swimlaneBody=0;fillColor=none;collapsible=0;dropTarget=0;points=[[0,0.5],[1,0.5]];portConstraint=eastwest;top=0;left=0;right=0;bottom=0;rounded=1;shadow=0;sketch=0;hachureGap=4;jiggle=2;curveFitting=1;fontFamily=Helvetica;fontSize=20;labelBackgroundColor=#FFFFFF;" vertex="1" parent="322">
                    <mxGeometry y="305" width="229" height="30" as="geometry"/>
                </mxCell>
                <mxCell id="351" style="shape=partialRectangle;connectable=0;fillColor=none;top=0;left=0;bottom=0;right=0;editable=1;overflow=hidden;rounded=1;shadow=0;sketch=0;hachureGap=4;jiggle=2;curveFitting=1;fontFamily=Helvetica;fontSize=20;labelBackgroundColor=#FFFFFF;" vertex="1" parent="350">
                    <mxGeometry width="30" height="30" as="geometry">
                        <mxRectangle width="30" height="30" as="alternateBounds"/>
                    </mxGeometry>
                </mxCell>
                <mxCell id="352" value="quantity: int NN" style="shape=partialRectangle;connectable=0;fillColor=none;top=0;left=0;bottom=0;right=0;align=left;spacingLeft=6;overflow=hidden;rounded=1;shadow=0;sketch=0;hachureGap=4;jiggle=2;curveFitting=1;fontFamily=Helvetica;fontSize=20;labelBackgroundColor=#FFFFFF;" vertex="1" parent="350">
                    <mxGeometry x="30" width="199" height="30" as="geometry">
                        <mxRectangle width="199" height="30" as="alternateBounds"/>
                    </mxGeometry>
                </mxCell>
                <mxCell id="353" style="shape=tableRow;horizontal=0;startSize=0;swimlaneHead=0;swimlaneBody=0;fillColor=none;collapsible=0;dropTarget=0;points=[[0,0.5],[1,0.5]];portConstraint=eastwest;top=0;left=0;right=0;bottom=0;rounded=1;shadow=0;sketch=0;hachureGap=4;jiggle=2;curveFitting=1;fontFamily=Helvetica;fontSize=20;labelBackgroundColor=#FFFFFF;" vertex="1" parent="322">
                    <mxGeometry y="335" width="229" height="30" as="geometry"/>
                </mxCell>
                <mxCell id="354" style="shape=partialRectangle;connectable=0;fillColor=none;top=0;left=0;bottom=0;right=0;editable=1;overflow=hidden;rounded=1;shadow=0;sketch=0;hachureGap=4;jiggle=2;curveFitting=1;fontFamily=Helvetica;fontSize=20;labelBackgroundColor=#FFFFFF;" vertex="1" parent="353">
                    <mxGeometry width="30" height="30" as="geometry">
                        <mxRectangle width="30" height="30" as="alternateBounds"/>
                    </mxGeometry>
                </mxCell>
                <mxCell id="355" value="is_equipped: bol NN" style="shape=partialRectangle;connectable=0;fillColor=none;top=0;left=0;bottom=0;right=0;align=left;spacingLeft=6;overflow=hidden;rounded=1;shadow=0;sketch=0;hachureGap=4;jiggle=2;curveFitting=1;fontFamily=Helvetica;fontSize=20;labelBackgroundColor=#FFFFFF;" vertex="1" parent="353">
                    <mxGeometry x="30" width="199" height="30" as="geometry">
                        <mxRectangle width="199" height="30" as="alternateBounds"/>
                    </mxGeometry>
                </mxCell>
                <mxCell id="356" value="" style="edgeStyle=entityRelationEdgeStyle;fontSize=12;html=1;endArrow=ERmandOne;startArrow=ERzeroToOne;sketch=0;hachureGap=4;jiggle=2;curveFitting=1;fontFamily=Architects Daughter;fontSource=https%3A%2F%2Ffonts.googleapis.com%2Fcss%3Ffamily%3DArchitects%2BDaughter;exitX=1;exitY=0.5;exitDx=0;exitDy=0;entryX=0;entryY=0.5;entryDx=0;entryDy=0;startFill=0;" edge="1" parent="1" source="33" target="178">
                    <mxGeometry width="100" height="100" relative="1" as="geometry">
                        <mxPoint x="270" y="490" as="sourcePoint"/>
                        <mxPoint x="350" y="390" as="targetPoint"/>
                    </mxGeometry>
                </mxCell>
                <mxCell id="357" value="" style="edgeStyle=entityRelationEdgeStyle;fontSize=12;html=1;endArrow=ERmandOne;startArrow=ERmandOne;sketch=0;hachureGap=4;jiggle=2;curveFitting=1;fontFamily=Architects Daughter;fontSource=https%3A%2F%2Ffonts.googleapis.com%2Fcss%3Ffamily%3DArchitects%2BDaughter;exitX=0;exitY=0.5;exitDx=0;exitDy=0;entryX=1;entryY=0.5;entryDx=0;entryDy=0;" edge="1" parent="1" source="302" target="178">
                    <mxGeometry width="100" height="100" relative="1" as="geometry">
                        <mxPoint x="560" y="490" as="sourcePoint"/>
                        <mxPoint x="620" y="120" as="targetPoint"/>
                    </mxGeometry>
                </mxCell>
                <mxCell id="358" value="Story" style="shape=table;startSize=30;container=1;collapsible=1;childLayout=tableLayout;fixedRows=1;rowLines=1;fontStyle=1;align=center;resizeLast=1;rounded=1;shadow=0;hachureGap=4;fontFamily=Helvetica;fontSize=20;labelBackgroundColor=#FFFFFF;swimlaneFillColor=#FFFFFF;" vertex="1" parent="1">
                    <mxGeometry x="780" y="690" width="230" height="210.00000000000045" as="geometry"/>
                </mxCell>
                <mxCell id="359" value="" style="shape=tableRow;horizontal=0;startSize=0;swimlaneHead=0;swimlaneBody=0;fillColor=none;collapsible=0;dropTarget=0;points=[[0,0.5],[1,0.5]];portConstraint=eastwest;top=0;left=0;right=0;bottom=1;rounded=1;shadow=0;sketch=0;hachureGap=4;jiggle=2;curveFitting=1;fontFamily=Helvetica;fontSize=20;labelBackgroundColor=#FFFFFF;" vertex="1" parent="358">
                    <mxGeometry y="30" width="230" height="30" as="geometry"/>
                </mxCell>
                <mxCell id="360" value="PK" style="shape=partialRectangle;connectable=0;fillColor=none;top=0;left=0;bottom=0;right=0;fontStyle=1;overflow=hidden;rounded=1;shadow=0;sketch=0;hachureGap=4;jiggle=2;curveFitting=1;fontFamily=Helvetica;fontSize=20;labelBackgroundColor=#FFFFFF;" vertex="1" parent="359">
                    <mxGeometry width="30" height="30" as="geometry">
                        <mxRectangle width="30" height="30" as="alternateBounds"/>
                    </mxGeometry>
                </mxCell>
                <mxCell id="361" value="UniqueID" style="shape=partialRectangle;connectable=0;fillColor=none;top=0;left=0;bottom=0;right=0;align=left;spacingLeft=6;fontStyle=5;overflow=hidden;rounded=1;shadow=0;sketch=0;hachureGap=4;jiggle=2;curveFitting=1;fontFamily=Helvetica;fontSize=20;labelBackgroundColor=#FFFFFF;" vertex="1" parent="359">
                    <mxGeometry x="30" width="200" height="30" as="geometry">
                        <mxRectangle width="200" height="30" as="alternateBounds"/>
                    </mxGeometry>
                </mxCell>
                <mxCell id="362" value="" style="shape=tableRow;horizontal=0;startSize=0;swimlaneHead=0;swimlaneBody=0;fillColor=none;collapsible=0;dropTarget=0;points=[[0,0.5],[1,0.5]];portConstraint=eastwest;top=0;left=0;right=0;bottom=0;rounded=1;shadow=0;sketch=0;hachureGap=4;jiggle=2;curveFitting=1;fontFamily=Helvetica;fontSize=20;labelBackgroundColor=#FFFFFF;" vertex="1" parent="358">
                    <mxGeometry y="60" width="230" height="30" as="geometry"/>
                </mxCell>
                <mxCell id="363" value="" style="shape=partialRectangle;connectable=0;fillColor=none;top=0;left=0;bottom=0;right=0;editable=1;overflow=hidden;rounded=1;shadow=0;sketch=0;hachureGap=4;jiggle=2;curveFitting=1;fontFamily=Helvetica;fontSize=20;labelBackgroundColor=#FFFFFF;" vertex="1" parent="362">
                    <mxGeometry width="30" height="30" as="geometry">
                        <mxRectangle width="30" height="30" as="alternateBounds"/>
                    </mxGeometry>
                </mxCell>
                <mxCell id="364" value="story_name: str NN" style="shape=partialRectangle;connectable=0;fillColor=none;top=0;left=0;bottom=0;right=0;align=left;spacingLeft=6;overflow=hidden;rounded=1;shadow=0;sketch=0;hachureGap=4;jiggle=2;curveFitting=1;fontFamily=Helvetica;fontSize=20;labelBackgroundColor=#FFFFFF;" vertex="1" parent="362">
                    <mxGeometry x="30" width="200" height="30" as="geometry">
                        <mxRectangle width="200" height="30" as="alternateBounds"/>
                    </mxGeometry>
                </mxCell>
                <mxCell id="365" value="" style="shape=tableRow;horizontal=0;startSize=0;swimlaneHead=0;swimlaneBody=0;fillColor=none;collapsible=0;dropTarget=0;points=[[0,0.5],[1,0.5]];portConstraint=eastwest;top=0;left=0;right=0;bottom=0;rounded=1;shadow=0;sketch=0;hachureGap=4;jiggle=2;curveFitting=1;fontFamily=Helvetica;fontSize=20;labelBackgroundColor=#FFFFFF;" vertex="1" parent="358">
                    <mxGeometry y="90" width="230" height="30" as="geometry"/>
                </mxCell>
                <mxCell id="366" value="" style="shape=partialRectangle;connectable=0;fillColor=none;top=0;left=0;bottom=0;right=0;editable=1;overflow=hidden;rounded=1;shadow=0;sketch=0;hachureGap=4;jiggle=2;curveFitting=1;fontFamily=Helvetica;fontSize=20;labelBackgroundColor=#FFFFFF;" vertex="1" parent="365">
                    <mxGeometry width="30" height="30" as="geometry">
                        <mxRectangle width="30" height="30" as="alternateBounds"/>
                    </mxGeometry>
                </mxCell>
                <mxCell id="367" value="tag: string NN" style="shape=partialRectangle;connectable=0;fillColor=none;top=0;left=0;bottom=0;right=0;align=left;spacingLeft=6;overflow=hidden;rounded=1;shadow=0;sketch=0;hachureGap=4;jiggle=2;curveFitting=1;fontFamily=Helvetica;fontSize=20;labelBackgroundColor=#FFFFFF;" vertex="1" parent="365">
                    <mxGeometry x="30" width="200" height="30" as="geometry">
                        <mxRectangle width="200" height="30" as="alternateBounds"/>
                    </mxGeometry>
                </mxCell>
                <mxCell id="374" style="shape=tableRow;horizontal=0;startSize=0;swimlaneHead=0;swimlaneBody=0;fillColor=none;collapsible=0;dropTarget=0;points=[[0,0.5],[1,0.5]];portConstraint=eastwest;top=0;left=0;right=0;bottom=0;rounded=1;shadow=0;sketch=0;hachureGap=4;jiggle=2;curveFitting=1;fontFamily=Helvetica;fontSize=20;labelBackgroundColor=#FFFFFF;" vertex="1" parent="358">
                    <mxGeometry y="120" width="230" height="30" as="geometry"/>
                </mxCell>
                <mxCell id="375" style="shape=partialRectangle;connectable=0;fillColor=none;top=0;left=0;bottom=0;right=0;editable=1;overflow=hidden;rounded=1;shadow=0;sketch=0;hachureGap=4;jiggle=2;curveFitting=1;fontFamily=Helvetica;fontSize=20;labelBackgroundColor=#FFFFFF;" vertex="1" parent="374">
                    <mxGeometry width="30" height="30" as="geometry">
                        <mxRectangle width="30" height="30" as="alternateBounds"/>
                    </mxGeometry>
                </mxCell>
                <mxCell id="376" value="difficulty: int NN" style="shape=partialRectangle;connectable=0;fillColor=none;top=0;left=0;bottom=0;right=0;align=left;spacingLeft=6;overflow=hidden;rounded=1;shadow=0;sketch=0;hachureGap=4;jiggle=2;curveFitting=1;fontFamily=Helvetica;fontSize=20;labelBackgroundColor=#FFFFFF;" vertex="1" parent="374">
                    <mxGeometry x="30" width="200" height="30" as="geometry">
                        <mxRectangle width="200" height="30" as="alternateBounds"/>
                    </mxGeometry>
                </mxCell>
                <mxCell id="371" style="shape=tableRow;horizontal=0;startSize=0;swimlaneHead=0;swimlaneBody=0;fillColor=none;collapsible=0;dropTarget=0;points=[[0,0.5],[1,0.5]];portConstraint=eastwest;top=0;left=0;right=0;bottom=0;rounded=1;shadow=0;sketch=0;hachureGap=4;jiggle=2;curveFitting=1;fontFamily=Helvetica;fontSize=20;labelBackgroundColor=#FFFFFF;" vertex="1" parent="358">
                    <mxGeometry y="150" width="230" height="30" as="geometry"/>
                </mxCell>
                <mxCell id="372" style="shape=partialRectangle;connectable=0;fillColor=none;top=0;left=0;bottom=0;right=0;editable=1;overflow=hidden;rounded=1;shadow=0;sketch=0;hachureGap=4;jiggle=2;curveFitting=1;fontFamily=Helvetica;fontSize=20;labelBackgroundColor=#FFFFFF;" vertex="1" parent="371">
                    <mxGeometry width="30" height="30" as="geometry">
                        <mxRectangle width="30" height="30" as="alternateBounds"/>
                    </mxGeometry>
                </mxCell>
                <mxCell id="373" value="description: Lstr NN" style="shape=partialRectangle;connectable=0;fillColor=none;top=0;left=0;bottom=0;right=0;align=left;spacingLeft=6;overflow=hidden;rounded=1;shadow=0;sketch=0;hachureGap=4;jiggle=2;curveFitting=1;fontFamily=Helvetica;fontSize=20;labelBackgroundColor=#FFFFFF;" vertex="1" parent="371">
                    <mxGeometry x="30" width="200" height="30" as="geometry">
                        <mxRectangle width="200" height="30" as="alternateBounds"/>
                    </mxGeometry>
                </mxCell>
                <mxCell id="368" style="shape=tableRow;horizontal=0;startSize=0;swimlaneHead=0;swimlaneBody=0;fillColor=none;collapsible=0;dropTarget=0;points=[[0,0.5],[1,0.5]];portConstraint=eastwest;top=0;left=0;right=0;bottom=0;rounded=1;shadow=0;sketch=0;hachureGap=4;jiggle=2;curveFitting=1;fontFamily=Helvetica;fontSize=20;labelBackgroundColor=#FFFFFF;" vertex="1" parent="358">
                    <mxGeometry y="180" width="230" height="30" as="geometry"/>
                </mxCell>
                <mxCell id="369" style="shape=partialRectangle;connectable=0;fillColor=none;top=0;left=0;bottom=0;right=0;editable=1;overflow=hidden;rounded=1;shadow=0;sketch=0;hachureGap=4;jiggle=2;curveFitting=1;fontFamily=Helvetica;fontSize=20;labelBackgroundColor=#FFFFFF;" vertex="1" parent="368">
                    <mxGeometry width="30" height="30" as="geometry">
                        <mxRectangle width="30" height="30" as="alternateBounds"/>
                    </mxGeometry>
                </mxCell>
                <mxCell id="370" value="mob_id: ref&#10;" style="shape=partialRectangle;connectable=0;fillColor=none;top=0;left=0;bottom=0;right=0;align=left;spacingLeft=6;overflow=hidden;rounded=1;shadow=0;sketch=0;hachureGap=4;jiggle=2;curveFitting=1;fontFamily=Helvetica;fontSize=20;labelBackgroundColor=#FFFFFF;" vertex="1" parent="368">
                    <mxGeometry x="30" width="200" height="30" as="geometry">
                        <mxRectangle width="200" height="30" as="alternateBounds"/>
                    </mxGeometry>
                </mxCell>
                <mxCell id="377" value="Mob" style="shape=table;startSize=30;container=1;collapsible=1;childLayout=tableLayout;fixedRows=1;rowLines=1;fontStyle=1;align=center;resizeLast=1;rounded=1;shadow=0;sketch=0;hachureGap=4;jiggle=2;curveFitting=1;fontFamily=Helvetica;fontSize=20;labelBackgroundColor=#FFFFFF;swimlaneFillColor=#FFFFFF;" vertex="1" parent="1">
                    <mxGeometry x="780" y="570" width="229" height="90" as="geometry"/>
                </mxCell>
                <mxCell id="378" value="" style="shape=tableRow;horizontal=0;startSize=0;swimlaneHead=0;swimlaneBody=0;fillColor=none;collapsible=0;dropTarget=0;points=[[0,0.5],[1,0.5]];portConstraint=eastwest;top=0;left=0;right=0;bottom=1;rounded=1;shadow=0;sketch=0;hachureGap=4;jiggle=2;curveFitting=1;fontFamily=Helvetica;fontSize=20;labelBackgroundColor=#FFFFFF;" vertex="1" parent="377">
                    <mxGeometry y="30" width="229" height="30" as="geometry"/>
                </mxCell>
                <mxCell id="379" value="PK" style="shape=partialRectangle;connectable=0;fillColor=none;top=0;left=0;bottom=0;right=0;fontStyle=1;overflow=hidden;rounded=1;shadow=0;sketch=0;hachureGap=4;jiggle=2;curveFitting=1;fontFamily=Helvetica;fontSize=20;labelBackgroundColor=#FFFFFF;" vertex="1" parent="378">
                    <mxGeometry width="30" height="30" as="geometry">
                        <mxRectangle width="30" height="30" as="alternateBounds"/>
                    </mxGeometry>
                </mxCell>
                <mxCell id="380" value="UniqueID" style="shape=partialRectangle;connectable=0;fillColor=none;top=0;left=0;bottom=0;right=0;align=left;spacingLeft=6;fontStyle=5;overflow=hidden;rounded=1;shadow=0;sketch=0;hachureGap=4;jiggle=2;curveFitting=1;fontFamily=Helvetica;fontSize=20;labelBackgroundColor=#FFFFFF;" vertex="1" parent="378">
                    <mxGeometry x="30" width="199" height="30" as="geometry">
                        <mxRectangle width="199" height="30" as="alternateBounds"/>
                    </mxGeometry>
                </mxCell>
                <mxCell id="381" value="" style="shape=tableRow;horizontal=0;startSize=0;swimlaneHead=0;swimlaneBody=0;fillColor=none;collapsible=0;dropTarget=0;points=[[0,0.5],[1,0.5]];portConstraint=eastwest;top=0;left=0;right=0;bottom=0;rounded=1;shadow=0;sketch=0;hachureGap=4;jiggle=2;curveFitting=1;fontFamily=Helvetica;fontSize=20;labelBackgroundColor=#FFFFFF;" vertex="1" parent="377">
                    <mxGeometry y="60" width="229" height="30" as="geometry"/>
                </mxCell>
                <mxCell id="382" value="" style="shape=partialRectangle;connectable=0;fillColor=none;top=0;left=0;bottom=0;right=0;editable=1;overflow=hidden;rounded=1;shadow=0;sketch=0;hachureGap=4;jiggle=2;curveFitting=1;fontFamily=Helvetica;fontSize=20;labelBackgroundColor=#FFFFFF;" vertex="1" parent="381">
                    <mxGeometry width="30" height="30" as="geometry">
                        <mxRectangle width="30" height="30" as="alternateBounds"/>
                    </mxGeometry>
                </mxCell>
                <mxCell id="383" value="enemy_id: ref" style="shape=partialRectangle;connectable=0;fillColor=none;top=0;left=0;bottom=0;right=0;align=left;spacingLeft=6;overflow=hidden;rounded=1;shadow=0;sketch=0;hachureGap=4;jiggle=2;curveFitting=1;fontFamily=Helvetica;fontSize=18;labelBackgroundColor=#FFFFFF;" vertex="1" parent="381">
                    <mxGeometry x="30" width="199" height="30" as="geometry">
                        <mxRectangle width="199" height="30" as="alternateBounds"/>
                    </mxGeometry>
                </mxCell>
                <mxCell id="387" value="" style="edgeStyle=entityRelationEdgeStyle;fontSize=12;html=1;endArrow=ERoneToMany;startArrow=ERzeroToOne;hachureGap=4;fontFamily=Architects Daughter;fontSource=https%3A%2F%2Ffonts.googleapis.com%2Fcss%3Ffamily%3DArchitects%2BDaughter;anchorPointDirection=1;" edge="1" parent="1" source="251" target="381">
                    <mxGeometry width="100" height="100" relative="1" as="geometry">
                        <mxPoint x="930" y="50" as="sourcePoint"/>
                        <mxPoint x="950" y="650" as="targetPoint"/>
                    </mxGeometry>
                </mxCell>
                <mxCell id="389" value="" style="edgeStyle=entityRelationEdgeStyle;fontSize=12;html=1;endArrow=ERmandOne;startArrow=ERmandOne;sketch=0;hachureGap=4;jiggle=2;curveFitting=1;fontFamily=Architects Daughter;fontSource=https%3A%2F%2Ffonts.googleapis.com%2Fcss%3Ffamily%3DArchitects%2BDaughter;movable=1;resizable=1;rotatable=1;deletable=1;editable=1;connectable=1;entryX=1;entryY=0.5;entryDx=0;entryDy=0;" edge="1" parent="1" source="368" target="378">
                    <mxGeometry width="100" height="100" relative="1" as="geometry">
                        <mxPoint x="661" y="620" as="sourcePoint"/>
                        <mxPoint x="630" y="620" as="targetPoint"/>
                    </mxGeometry>
                </mxCell>
                <mxCell id="390" value="Shop" style="shape=table;startSize=30;container=1;collapsible=1;childLayout=tableLayout;fixedRows=1;rowLines=1;fontStyle=1;align=center;resizeLast=1;rounded=1;shadow=0;hachureGap=4;fontFamily=Helvetica;fontSize=20;labelBackgroundColor=#FFFFFF;swimlaneFillColor=#FFFFFF;" vertex="1" parent="1">
                    <mxGeometry x="400" y="736" width="230" height="180.00000000000045" as="geometry"/>
                </mxCell>
                <mxCell id="391" value="" style="shape=tableRow;horizontal=0;startSize=0;swimlaneHead=0;swimlaneBody=0;fillColor=none;collapsible=0;dropTarget=0;points=[[0,0.5],[1,0.5]];portConstraint=eastwest;top=0;left=0;right=0;bottom=1;rounded=1;shadow=0;sketch=0;hachureGap=4;jiggle=2;curveFitting=1;fontFamily=Helvetica;fontSize=20;labelBackgroundColor=#FFFFFF;" vertex="1" parent="390">
                    <mxGeometry y="30" width="230" height="30" as="geometry"/>
                </mxCell>
                <mxCell id="392" value="PK" style="shape=partialRectangle;connectable=0;fillColor=none;top=0;left=0;bottom=0;right=0;fontStyle=1;overflow=hidden;rounded=1;shadow=0;sketch=0;hachureGap=4;jiggle=2;curveFitting=1;fontFamily=Helvetica;fontSize=20;labelBackgroundColor=#FFFFFF;" vertex="1" parent="391">
                    <mxGeometry width="30" height="30" as="geometry">
                        <mxRectangle width="30" height="30" as="alternateBounds"/>
                    </mxGeometry>
                </mxCell>
                <mxCell id="393" value="UniqueID" style="shape=partialRectangle;connectable=0;fillColor=none;top=0;left=0;bottom=0;right=0;align=left;spacingLeft=6;fontStyle=5;overflow=hidden;rounded=1;shadow=0;sketch=0;hachureGap=4;jiggle=2;curveFitting=1;fontFamily=Helvetica;fontSize=20;labelBackgroundColor=#FFFFFF;" vertex="1" parent="391">
                    <mxGeometry x="30" width="200" height="30" as="geometry">
                        <mxRectangle width="200" height="30" as="alternateBounds"/>
                    </mxGeometry>
                </mxCell>
                <mxCell id="394" value="" style="shape=tableRow;horizontal=0;startSize=0;swimlaneHead=0;swimlaneBody=0;fillColor=none;collapsible=0;dropTarget=0;points=[[0,0.5],[1,0.5]];portConstraint=eastwest;top=0;left=0;right=0;bottom=0;rounded=1;shadow=0;sketch=0;hachureGap=4;jiggle=2;curveFitting=1;fontFamily=Helvetica;fontSize=20;labelBackgroundColor=#FFFFFF;" vertex="1" parent="390">
                    <mxGeometry y="60" width="230" height="30" as="geometry"/>
                </mxCell>
                <mxCell id="395" value="" style="shape=partialRectangle;connectable=0;fillColor=none;top=0;left=0;bottom=0;right=0;editable=1;overflow=hidden;rounded=1;shadow=0;sketch=0;hachureGap=4;jiggle=2;curveFitting=1;fontFamily=Helvetica;fontSize=20;labelBackgroundColor=#FFFFFF;" vertex="1" parent="394">
                    <mxGeometry width="30" height="30" as="geometry">
                        <mxRectangle width="30" height="30" as="alternateBounds"/>
                    </mxGeometry>
                </mxCell>
                <mxCell id="396" value="shop_name: str NN" style="shape=partialRectangle;connectable=0;fillColor=none;top=0;left=0;bottom=0;right=0;align=left;spacingLeft=6;overflow=hidden;rounded=1;shadow=0;sketch=0;hachureGap=4;jiggle=2;curveFitting=1;fontFamily=Helvetica;fontSize=20;labelBackgroundColor=#FFFFFF;" vertex="1" parent="394">
                    <mxGeometry x="30" width="200" height="30" as="geometry">
                        <mxRectangle width="200" height="30" as="alternateBounds"/>
                    </mxGeometry>
                </mxCell>
                <mxCell id="397" value="" style="shape=tableRow;horizontal=0;startSize=0;swimlaneHead=0;swimlaneBody=0;fillColor=none;collapsible=0;dropTarget=0;points=[[0,0.5],[1,0.5]];portConstraint=eastwest;top=0;left=0;right=0;bottom=0;rounded=1;shadow=0;sketch=0;hachureGap=4;jiggle=2;curveFitting=1;fontFamily=Helvetica;fontSize=20;labelBackgroundColor=#FFFFFF;" vertex="1" parent="390">
                    <mxGeometry y="90" width="230" height="30" as="geometry"/>
                </mxCell>
                <mxCell id="398" value="" style="shape=partialRectangle;connectable=0;fillColor=none;top=0;left=0;bottom=0;right=0;editable=1;overflow=hidden;rounded=1;shadow=0;sketch=0;hachureGap=4;jiggle=2;curveFitting=1;fontFamily=Helvetica;fontSize=20;labelBackgroundColor=#FFFFFF;" vertex="1" parent="397">
                    <mxGeometry width="30" height="30" as="geometry">
                        <mxRectangle width="30" height="30" as="alternateBounds"/>
                    </mxGeometry>
                </mxCell>
                <mxCell id="399" value="bargin_rate: int NN" style="shape=partialRectangle;connectable=0;fillColor=none;top=0;left=0;bottom=0;right=0;align=left;spacingLeft=6;overflow=hidden;rounded=1;shadow=0;sketch=0;hachureGap=4;jiggle=2;curveFitting=1;fontFamily=Helvetica;fontSize=20;labelBackgroundColor=#FFFFFF;" vertex="1" parent="397">
                    <mxGeometry x="30" width="200" height="30" as="geometry">
                        <mxRectangle width="200" height="30" as="alternateBounds"/>
                    </mxGeometry>
                </mxCell>
                <mxCell id="403" style="shape=tableRow;horizontal=0;startSize=0;swimlaneHead=0;swimlaneBody=0;fillColor=none;collapsible=0;dropTarget=0;points=[[0,0.5],[1,0.5]];portConstraint=eastwest;top=0;left=0;right=0;bottom=0;rounded=1;shadow=0;sketch=0;hachureGap=4;jiggle=2;curveFitting=1;fontFamily=Helvetica;fontSize=20;labelBackgroundColor=#FFFFFF;" vertex="1" parent="390">
                    <mxGeometry y="120" width="230" height="30" as="geometry"/>
                </mxCell>
                <mxCell id="404" style="shape=partialRectangle;connectable=0;fillColor=none;top=0;left=0;bottom=0;right=0;editable=1;overflow=hidden;rounded=1;shadow=0;sketch=0;hachureGap=4;jiggle=2;curveFitting=1;fontFamily=Helvetica;fontSize=20;labelBackgroundColor=#FFFFFF;" vertex="1" parent="403">
                    <mxGeometry width="30" height="30" as="geometry">
                        <mxRectangle width="30" height="30" as="alternateBounds"/>
                    </mxGeometry>
                </mxCell>
                <mxCell id="405" value="greeting: str NN" style="shape=partialRectangle;connectable=0;fillColor=none;top=0;left=0;bottom=0;right=0;align=left;spacingLeft=6;overflow=hidden;rounded=1;shadow=0;sketch=0;hachureGap=4;jiggle=2;curveFitting=1;fontFamily=Helvetica;fontSize=20;labelBackgroundColor=#FFFFFF;" vertex="1" parent="403">
                    <mxGeometry x="30" width="200" height="30" as="geometry">
                        <mxRectangle width="200" height="30" as="alternateBounds"/>
                    </mxGeometry>
                </mxCell>
                <mxCell id="400" style="shape=tableRow;horizontal=0;startSize=0;swimlaneHead=0;swimlaneBody=0;fillColor=none;collapsible=0;dropTarget=0;points=[[0,0.5],[1,0.5]];portConstraint=eastwest;top=0;left=0;right=0;bottom=0;rounded=1;shadow=0;sketch=0;hachureGap=4;jiggle=2;curveFitting=1;fontFamily=Helvetica;fontSize=20;labelBackgroundColor=#FFFFFF;" vertex="1" parent="390">
                    <mxGeometry y="150" width="230" height="30" as="geometry"/>
                </mxCell>
                <mxCell id="401" style="shape=partialRectangle;connectable=0;fillColor=none;top=0;left=0;bottom=0;right=0;editable=1;overflow=hidden;rounded=1;shadow=0;sketch=0;hachureGap=4;jiggle=2;curveFitting=1;fontFamily=Helvetica;fontSize=20;labelBackgroundColor=#FFFFFF;" vertex="1" parent="400">
                    <mxGeometry width="30" height="30" as="geometry">
                        <mxRectangle width="30" height="30" as="alternateBounds"/>
                    </mxGeometry>
                </mxCell>
                <mxCell id="402" value="item_id: ref" style="shape=partialRectangle;connectable=0;fillColor=none;top=0;left=0;bottom=0;right=0;align=left;spacingLeft=6;overflow=hidden;rounded=1;shadow=0;sketch=0;hachureGap=4;jiggle=2;curveFitting=1;fontFamily=Helvetica;fontSize=20;labelBackgroundColor=#FFFFFF;" vertex="1" parent="400">
                    <mxGeometry x="30" width="200" height="30" as="geometry">
                        <mxRectangle width="200" height="30" as="alternateBounds"/>
                    </mxGeometry>
                </mxCell>
                <mxCell id="409" value="" style="edgeStyle=entityRelationEdgeStyle;fontSize=12;html=1;endArrow=ERoneToMany;startArrow=ERmandOne;sketch=0;hachureGap=4;jiggle=2;curveFitting=1;fontFamily=Architects Daughter;fontSource=https%3A%2F%2Ffonts.googleapis.com%2Fcss%3Ffamily%3DArchitects%2BDaughter;entryX=1;entryY=0.5;entryDx=0;entryDy=0;strokeColor=none;" edge="1" parent="1" source="400" target="323">
                    <mxGeometry width="100" height="100" relative="1" as="geometry">
                        <mxPoint x="539" y="800" as="sourcePoint"/>
                        <mxPoint x="600" y="640" as="targetPoint"/>
                    </mxGeometry>
                </mxCell>
                <mxCell id="410" value="ShopIttem" style="shape=table;startSize=30;container=1;collapsible=1;childLayout=tableLayout;fixedRows=1;rowLines=1;fontStyle=1;align=center;resizeLast=1;rounded=1;shadow=0;hachureGap=4;fontFamily=Helvetica;fontSize=20;labelBackgroundColor=#FFFFFF;swimlaneFillColor=#FFFFFF;" vertex="1" parent="1">
                    <mxGeometry x="400" y="586" width="230" height="120.00000000000045" as="geometry"/>
                </mxCell>
                <mxCell id="411" value="" style="shape=tableRow;horizontal=0;startSize=0;swimlaneHead=0;swimlaneBody=0;fillColor=none;collapsible=0;dropTarget=0;points=[[0,0.5],[1,0.5]];portConstraint=eastwest;top=0;left=0;right=0;bottom=1;rounded=1;shadow=0;sketch=0;hachureGap=4;jiggle=2;curveFitting=1;fontFamily=Helvetica;fontSize=20;labelBackgroundColor=#FFFFFF;" vertex="1" parent="410">
                    <mxGeometry y="30" width="230" height="30" as="geometry"/>
                </mxCell>
                <mxCell id="412" value="PK" style="shape=partialRectangle;connectable=0;fillColor=none;top=0;left=0;bottom=0;right=0;fontStyle=1;overflow=hidden;rounded=1;shadow=0;sketch=0;hachureGap=4;jiggle=2;curveFitting=1;fontFamily=Helvetica;fontSize=20;labelBackgroundColor=#FFFFFF;" vertex="1" parent="411">
                    <mxGeometry width="30" height="30" as="geometry">
                        <mxRectangle width="30" height="30" as="alternateBounds"/>
                    </mxGeometry>
                </mxCell>
                <mxCell id="413" value="UniqueID" style="shape=partialRectangle;connectable=0;fillColor=none;top=0;left=0;bottom=0;right=0;align=left;spacingLeft=6;fontStyle=5;overflow=hidden;rounded=1;shadow=0;sketch=0;hachureGap=4;jiggle=2;curveFitting=1;fontFamily=Helvetica;fontSize=20;labelBackgroundColor=#FFFFFF;" vertex="1" parent="411">
                    <mxGeometry x="30" width="200" height="30" as="geometry">
                        <mxRectangle width="200" height="30" as="alternateBounds"/>
                    </mxGeometry>
                </mxCell>
                <mxCell id="414" value="" style="shape=tableRow;horizontal=0;startSize=0;swimlaneHead=0;swimlaneBody=0;fillColor=none;collapsible=0;dropTarget=0;points=[[0,0.5],[1,0.5]];portConstraint=eastwest;top=0;left=0;right=0;bottom=0;rounded=1;shadow=0;sketch=0;hachureGap=4;jiggle=2;curveFitting=1;fontFamily=Helvetica;fontSize=20;labelBackgroundColor=#FFFFFF;" vertex="1" parent="410">
                    <mxGeometry y="60" width="230" height="30" as="geometry"/>
                </mxCell>
                <mxCell id="415" value="" style="shape=partialRectangle;connectable=0;fillColor=none;top=0;left=0;bottom=0;right=0;editable=1;overflow=hidden;rounded=1;shadow=0;sketch=0;hachureGap=4;jiggle=2;curveFitting=1;fontFamily=Helvetica;fontSize=20;labelBackgroundColor=#FFFFFF;" vertex="1" parent="414">
                    <mxGeometry width="30" height="30" as="geometry">
                        <mxRectangle width="30" height="30" as="alternateBounds"/>
                    </mxGeometry>
                </mxCell>
                <mxCell id="416" value="item_id: ref" style="shape=partialRectangle;connectable=0;fillColor=none;top=0;left=0;bottom=0;right=0;align=left;spacingLeft=6;overflow=hidden;rounded=1;shadow=0;sketch=0;hachureGap=4;jiggle=2;curveFitting=1;fontFamily=Helvetica;fontSize=20;labelBackgroundColor=#FFFFFF;" vertex="1" parent="414">
                    <mxGeometry x="30" width="200" height="30" as="geometry">
                        <mxRectangle width="200" height="30" as="alternateBounds"/>
                    </mxGeometry>
                </mxCell>
                <mxCell id="417" value="" style="shape=tableRow;horizontal=0;startSize=0;swimlaneHead=0;swimlaneBody=0;fillColor=none;collapsible=0;dropTarget=0;points=[[0,0.5],[1,0.5]];portConstraint=eastwest;top=0;left=0;right=0;bottom=0;rounded=1;shadow=0;sketch=0;hachureGap=4;jiggle=2;curveFitting=1;fontFamily=Helvetica;fontSize=20;labelBackgroundColor=#FFFFFF;" vertex="1" parent="410">
                    <mxGeometry y="90" width="230" height="30" as="geometry"/>
                </mxCell>
                <mxCell id="418" value="" style="shape=partialRectangle;connectable=0;fillColor=none;top=0;left=0;bottom=0;right=0;editable=1;overflow=hidden;rounded=1;shadow=0;sketch=0;hachureGap=4;jiggle=2;curveFitting=1;fontFamily=Helvetica;fontSize=20;labelBackgroundColor=#FFFFFF;" vertex="1" parent="417">
                    <mxGeometry width="30" height="30" as="geometry">
                        <mxRectangle width="30" height="30" as="alternateBounds"/>
                    </mxGeometry>
                </mxCell>
                <mxCell id="419" value="shop_id: ref" style="shape=partialRectangle;connectable=0;fillColor=none;top=0;left=0;bottom=0;right=0;align=left;spacingLeft=6;overflow=hidden;rounded=1;shadow=0;sketch=0;hachureGap=4;jiggle=2;curveFitting=1;fontFamily=Helvetica;fontSize=20;labelBackgroundColor=#FFFFFF;" vertex="1" parent="417">
                    <mxGeometry x="30" width="200" height="30" as="geometry">
                        <mxRectangle width="200" height="30" as="alternateBounds"/>
                    </mxGeometry>
                </mxCell>
                <mxCell id="427" value="" style="edgeStyle=entityRelationEdgeStyle;fontSize=12;html=1;endArrow=ERoneToMany;startArrow=ERoneToMany;sketch=0;hachureGap=4;jiggle=2;curveFitting=1;fontFamily=Architects Daughter;fontSource=https%3A%2F%2Ffonts.googleapis.com%2Fcss%3Ffamily%3DArchitects%2BDaughter;entryX=1;entryY=0.5;entryDx=0;entryDy=0;exitX=1;exitY=0.5;exitDx=0;exitDy=0;" edge="1" parent="1" source="391" target="417">
                    <mxGeometry width="100" height="100" relative="1" as="geometry">
                        <mxPoint x="490" y="840" as="sourcePoint"/>
                        <mxPoint x="590" y="740" as="targetPoint"/>
                    </mxGeometry>
                </mxCell>
                <mxCell id="428" value="" style="edgeStyle=entityRelationEdgeStyle;fontSize=12;html=1;endArrow=ERoneToMany;startArrow=ERoneToMany;sketch=0;hachureGap=4;jiggle=2;curveFitting=1;fontFamily=Architects Daughter;fontSource=https%3A%2F%2Ffonts.googleapis.com%2Fcss%3Ffamily%3DArchitects%2BDaughter;exitX=1;exitY=0.5;exitDx=0;exitDy=0;" edge="1" parent="1" source="414" target="323">
                    <mxGeometry width="100" height="100" relative="1" as="geometry">
                        <mxPoint x="560" y="639.9999999999998" as="sourcePoint"/>
                        <mxPoint x="560" y="549.9999999999998" as="targetPoint"/>
                    </mxGeometry>
                </mxCell>
                <mxCell id="308" value="" style="edgeStyle=entityRelationEdgeStyle;fontSize=12;html=1;endArrow=ERoneToMany;startArrow=ERone;hachureGap=4;fontFamily=Architects Daughter;fontSource=https%3A%2F%2Ffonts.googleapis.com%2Fcss%3Ffamily%3DArchitects%2BDaughter;startFill=0;" edge="1" parent="1" source="323" target="181">
                    <mxGeometry width="100" height="100" relative="1" as="geometry">
                        <mxPoint x="560" y="215" as="sourcePoint"/>
                        <mxPoint x="320" y="115" as="targetPoint"/>
                    </mxGeometry>
                </mxCell>
            </root>
        </mxGraphModel>
    </diagram>
</mxfile>